/* XPM */
static char *tile001[] = {
/* columns rows colors chars-per-pixel */
"64 64 169 2 ",
"   c #080500",
".  c #130E08",
"X  c #15100A",
"o  c #18150C",
"O  c #1C1713",
"+  c #1E1B14",
"@  c #1C171B",
"#  c #1E1D1A",
"$  c #221D14",
"%  c #221E1A",
"&  c #242116",
"*  c #292217",
"=  c #25221C",
"-  c #2A251D",
";  c #2D291E",
":  c #322A1E",
">  c #262421",
",  c #2A2621",
"<  c #2D2A23",
"1  c #292728",
"2  c #2E2C29",
"3  c #322D24",
"4  c #3A2E25",
"5  c #322E29",
"6  c #353125",
"7  c #3A3325",
"8  c #3C3926",
"9  c #35322B",
"0  c #3A342C",
"q  c #37382E",
"w  c #3D392C",
"e  c #363531",
"r  c #3A3632",
"t  c #3D3A34",
"y  c #3E3C39",
"u  c #403725",
"i  c #41372E",
"p  c #433C2D",
"a  c #403734",
"s  c #433C33",
"d  c #413E39",
"f  c #46412F",
"g  c #464134",
"h  c #4A4235",
"j  c #45413B",
"k  c #4B453C",
"l  c #4D493E",
"z  c #574D36",
"x  c #51463F",
"c  c #524B3D",
"v  c #5A513F",
"b  c #474440",
"n  c #4A4642",
"m  c #4E4A43",
"M  c #4D4B48",
"N  c #504740",
"B  c #534C44",
"V  c #524D4A",
"C  c #555144",
"Z  c #595245",
"A  c #55514C",
"S  c #5B554B",
"D  c #5D594C",
"F  c #544F53",
"G  c #575351",
"H  c #5A5552",
"J  c #5E5954",
"K  c #5C5658",
"L  c #5E5A5A",
"P  c #61564D",
"I  c #625B4C",
"U  c #635C54",
"Y  c #6B5F57",
"T  c #635E5B",
"R  c #666056",
"E  c #6A6354",
"W  c #66615B",
"Q  c #6B655C",
"!  c #6D6859",
"~  c #726255",
"^  c #71665A",
"/  c #726C5D",
"(  c #796D5E",
")  c #645E60",
"_  c #666262",
"`  c #6B6563",
"'  c #6E6965",
"]  c #6E6A69",
"[  c #706760",
"{  c #726C65",
"}  c #7A6E63",
"|  c #736D6B",
" . c #767267",
".. c #7B7365",
"X. c #76716C",
"o. c #7A746D",
"O. c #7E796E",
"+. c #746E71",
"@. c #767171",
"#. c #7B7573",
"$. c #7E7974",
"%. c #7E757A",
"&. c #7E7979",
"*. c #847966",
"=. c #82766D",
"-. c #83796C",
";. c #897C6C",
":. c #807771",
">. c #837C74",
",. c #897F75",
"<. c #837D7A",
"1. c #897F7A",
"2. c #858075",
"3. c #8A8176",
"4. c #86817C",
"5. c #8A847C",
"6. c #8C887E",
"7. c #90867D",
"8. c #93897F",
"9. c #867D80",
"0. c #868281",
"q. c #8B8582",
"w. c #8E8984",
"e. c #8C8689",
"r. c #8E8A89",
"t. c #908681",
"y. c #938C84",
"u. c #988D84",
"i. c #938D8A",
"p. c #998F89",
"a. c #959086",
"s. c #9B9186",
"d. c #96918C",
"f. c #9B938C",
"g. c #9E988E",
"h. c #938F90",
"j. c #988F90",
"k. c #969192",
"l. c #9B9592",
"z. c #9E9993",
"x. c #9D979A",
"c. c #9E9A9A",
"v. c #A1968B",
"b. c #A3998E",
"n. c #A09790",
"m. c #A39B93",
"M. c #A99E94",
"N. c #A39D9A",
"B. c #A99E98",
"V. c #A4A097",
"C. c #A9A197",
"Z. c #A6A19B",
"A. c #ABA39B",
"S. c #B0A69C",
"D. c #B1A99E",
"F. c #A6A3A2",
"G. c #ABA5A2",
"H. c #AEAAA4",
"J. c #AFACA9",
"K. c #B1A7A1",
"L. c #B4ACA3",
"P. c #B8AFA6",
"I. c #B3AEAC",
"U. c #B6B4AC",
"Y. c #BAB2AB",
"T. c #B8B3B0",
"R. c #BDB8B5",
"E. c #CABEB6",
"W. c #D6D1CB",
/* pixels */
"# 2 q < , < q t 0 t 9 d d d d ; $ % % = 5 k < 2 3 3 t n j W q r < - 3 - < < = - = % 3 3 - - = = < 7 s 4 : u 4 < 3 < a $ * 0 h s ",
"= r B T Q 2.t.>.` Y Q { J U Q } | S ` r , = 3 m 2.y.q.>.#.4.p.t , % = = = = = = 3 P U v l 8 * = = 9 3 ; s d V Q | <.f.#.8 9 4 ; ",
"j  .5.`  .o.Q { O.O.} 5.>.>.4.$.<.<.2.y = , >.i.i.N.f.Z.f.$.q.o.2 ; ; : - = t A.D.v.b.s.1.T Q S 3 = 3 O.U o.Q >.} { >.0.J < s s ",
"J >.5.o.>. .>.>.>.O.>.| o. .O.T O. . .l = % w.$.1.5.r.l.x.N.m.l.w - g 0 = k L.L.S.u.u.u.1.A.U.f.g.< 9 } >.#.o.O.$.| ] +.4.3 6 T ",
"{ >.5. .>.>.>.>.<.>.>.5.5.t.>.< o. .R R , > _ 4.>.5.i.N.x.0.l.l.< < ; = w L.L.C.u.8.s.v.m.m.t.N.5.; a :.7.=.o.$. .4.o.w.d.g A T ",
" .>.5.>.>.<.5.o.<.2.5.5.5.4.q.d.2.2.A [ H 2 r 2.0.t.m.A.z.r.x.z.0 , g 8 D.U.v.s.3.s.v.M.B.m.5.A.[ = W.O.p.y.>.q.8.q.0.4.0.J l m ",
" .>.>.O.>.a.w.5.6.5.8.5.$.2.q.y.5.2.Q o.T.y 1 $.y.4.y.N.x.f.x.l.7 8 - S D.v.v.8.7.M.b.C.C.d.5.*.l < =.5.u.7.v.y.d.y.q.r.w.j A t ",
"| >. .>.>.y.y.2.a.y.<.<.>.3.5.5.4.4.4.o.J.n > #.x.i.k.N.r.d.c.w.= 6 - 8.v.v.v.8.s.M.b.C.b.t.5.t 0 0 Y d.y.d.y.a.d.7.a.x.f.<.t q ",
"n o.$.$.2.6.5.6.6.q.<.5.>.4.>.5.2.w.>.R y.n > r.1.5.l.z.N.e.N.i.B 7 t A.v.b.8.M.v.v.v.v.C.v.o.h 9 X 4.y.t.y.s.p.m.b.f.z.z.0.< < ",
"2 r  .o.$.5.y.t.O.6.5.3.y.5.4.>.o.@.4.M C 2 2 f.5.5.y.A.p.l.N.i.; 4 5.b.M.b.8.v.M.v.D.S.S.M.d.P : 6 6.s.b.g.f.D.m.m.m.m.g.U.9 - ",
"1 , e W [ -.2.5.p.>.5.3.O.5.>. .o.&.w.t _ 9 ) 4.o.i.f.G.i.x.N.t.c P C.b.b.8.v.M.b.b.8.v.m.p.n.^ 8 3 3.C.f.a.u.m.m.V.A.m.m.G.8 , ",
"= 2 q n A W y.w.4.5.5.<.5.5.>.,.2.o.Q k , < 4.4.w.c.y.z.r.k.d.S u M.b.v.b.s.u.D.S.S.8.M.p.y.t.,.j j d.s.8.m.y.f.A.V.6.D.A.G.Z , ",
"y _ G q < = e O.>.-.>.5.u.<.5.>.5.$.| k > n <.N.c.q.p.m.l.F.U s Q S.M.b.v.8.M.v.b.v.M.M.v.v.u.d.s s p.p.z.g.p.m.b.f.v.A.m.V.l , ",
"] { 4.W H y > 1 B 5.6.5.>.t.t.5.4.4.| G > i.0.4.f.t.m.i.i.i.-.4 U m.v.v.v.u.v.,.8.v.M.b.v.v.n.n.h x s.d.b.p.f.f.C.K.y.5.d.A.d 3 ",
"o.o.w.0._ W ] y # # r ] X.@.2.<.1.y.#.1 1 H.4.r.0.5.l.r.i.^ 7 , E C.b.b.v.,.,.b.v.S.8.b.8.u.,.v.s I s.z.m.d.m.z.f.z.m.N.V.G.s - ",
"&.$.z.l.4.2.M X.e > # > n j b d M T e < 1 H.@.w.0.r.l.r.5.*...= ( M.C.v.b.:.=.7.8.7.M.8.M.8.1.} s c f.f.m.g.f.g.f.g.l.m.A.y.s = ",
"4.w.d.d.<.'  .' 5 S 2 < 0 m 9 5 > # % , 5 U h.&.9.%.i.o.^ P 4 < : ;.M.Y.A.m.#.>.{ #.t.p.,.1.Y 0 0 3 y.f.n.p.f.m.f.z.f.v.s.^ 4 = ",
"] d.z.d.| W o.' 2 - = = q J A s A q s 8 < , n { { { B d u k , ; 7 E 5.8.8.t.^ P Q ,.5.:.Y x , , ; 4 1.f.g.g.d.d.d.>.5.d.a.9 - - ",
"4.w.l.d.' J $.<.3 - 2 W 5.{ U z.l.y.{ u z 6 r 3 s h i p 0 - 0 7 8 s.; 6 3 % 3 % - % 3 3 < , , 3 s x b.>.m.l.t.1.5.y.f...9 ; ; - ",
"$.a.d.d. .W o.' j q ' 2.2.d.N.f.l.l.m.5.k O 4 d 9 5 = 3 3 5 V d = 7 p r = l n Q a.5.:.:.X.U s s B Z 3.p { <.3.8.5.U I : ; % 3 q ",
"<.d.d.z.o.$.o.' j $.' a.q.6.6.r.i.l.z.m.w.R q C h w U d j U <.#.O.i 8 * ^  .*.=.d.p.Q [ ,.l.5.B s p P p 3 p s.s 3 U c S d ; % < ",
"<.a.w.z.| o.4.| n J $.6.A.a.g.f.N.d.U m.z. ., 8 k A.>.O.` } | { ` 0 l - ,.t.>.o.p...,.| m.n.b.>.B 4 s B  .A.G.d.U.J.H.T.L.i.% s ",
"4.a.w.o.2.w.6.o.M A $.d.d.q.V.q.d.f.o.f.d.B , = A.$.X.o.>.>.o.| S 9 8 S 5.7.>.y.y.,.=.1.n.g.g.l.k 4 Q G.5.] | j.+.#.%.] | @.5 0 ",
"4.4.4.X.$.$.0.X.n U >.N.Z.6.w.$.p.t.z.m.y.S = s.p.:.>.,.o.$.>.| L 3 < >.5.7.t.5.;.:.7.f.f.5.t.v.0 N F.9.| | <.q.<.#.` _ ] ` V a ",
"2.q.$.X.2.#.q.J q o.$.z.l.q.y.5.y.N.m.i.o.k , U.4.w.y.X.<.o.<.q.U 7 g 2.y.5.t.8.p.y.v.y.d.5.q.>.9 U %.+.%.#.i.>.#.| +.+.] _ H d ",
"o.4.#.o.X.2.2.W t ] a.l.m.d.m.m.m.m.d.2.! $ M 5.m.w.>.w.0.z.t.3.B , P 5.3.q.3.y.g.m.m.p.p.5.7.X.9 K #.>.<.#.>.j.| &.#.| ] ) G b ",
"{ w.$.X.X.<.X.W q m w.V.m.l.m.! ;.I d p w 8 l 5.v.f.t.5.p.5.i.p.9 9 E 5.5.,.t.y.g.M.m.y.v.>.f.o.6 c <.>.X._ _ &.#.] +.| T ) V 9 ",
"W 4.6.4.o. .' Q > 2 W W Q h 6 g p p p p 4 0 B y.D.b.u.~ [ l.x.V M.s [ 5.8.<.5.f.m.m.v.m.g.o.l.Q 6 9 G +.T K _ T T ` U T K T 5 , ",
"M w.w.$.X.o.{ T = q 2 w 6 - 2 $ < - - - 9 + 7.C.s.s.*.;.;.p.f.w.E.4 / o.-.0.p.t.A.y.v.p.f.d.g.$.4 6 t A J U K G G A H G V 0 - = ",
"M 2.q.0.X.$.o.l > 7 w - + - e V U Q t ; c Y.C.d.5.( *.;.;.3.7.,.B O B 3.5.4.i.q.n.N.p.q.g.m.5.q 3 $ 9 3 9 w Z s < 6 - % - ; - = ",
"M $.w.r.q.4.J 2 < - D J.H.F.N.4.c.5.r.0 i  .g.3.,.>.! *.I >.1.=.! s Z P t.6.q.y.p.p.<.o.#.o.l 3 6 m ,.-.g.6.' j 6 $ 3 6 s * - 2 ",
"l T X.J J G d = t 2.r.>._ ] | ] X.| <.T 4 E m.5.;.;.( I Q o.,.>.Y 8 6 ( Z t.d.>.,.:.B h x s #.f.c.c.c.H.i.g.J.] t 6 = o 3 ; 7 6 ",
"t e y e n d , = b +.| <.#.%.&.#.` &.o.] p f >.A.t.;.-.*.*.3.5.I 7 d 4 R p k k 0 p c k p p V.c.c.r.0.4.I.<.i.i.x.r.d.>.U m.D 8 9 ",
"> > 2 > # % > > ] | #.#.] <.<.| #.&.@.&.C 7 s ! g.m.v.p.6.q.;.8 * ; $ < B 3 3 7 < 5 $ : Q F.e.d.e.0.e.k.4.e.G.p.A.g.S.A.n.5.0 6 ",
"% # 5 b V ` J 5 { $.#.#.<.e.#.#.4.4.$.<.Z c 6 $ g P U Y p ; 4 p /  .5.[ =.[ E 8 6 g 4 - U N.$.q.0.0.r.<.2.w.m.A.A.v.b.m.V.y.l 7 ",
", j ] &.<.<.>.9 M #.<.| <.0.l.f.2.2.<.r.C f - q = 6 h 8 p v h p ~ -.>.o.>.#.[ 5.l...h p ,.f.@.&.4.r.&.4.q.d.d.y.A.V.S.m.s.f.4.8 ",
"< #.4.<.&.W q.j 0 #. .| #.>.t.y.w.6.4.q.o.J A m O.6.$.U p 7 h ! v.v.M.L.C.t.>.:.:.p.B 6  .#.#.&.#.&.0.i.0.l.g.b.m.S.A.n.d.s.t.7 ",
"q #.{ _ &.<.y.` 9 $.<.&.<.1.d.m.l.r.4.4.h.<.$.X.` ' ) <.s p 7 y.v.b.b.E.=.v.7.5.>.y.q.9 M F.` %.&.$.<.<.q.m.g.A.A.B.A.C.m.u.d.6 ",
"y ] #.&.<.>.4.<., | 4.w.q.t.<.5.4.4.l.d.0.| X.X.] X.| @.' 6 f y.s.b.P.M.8.v.f.3.v.4.f.3 D r.+.&.&.&.w.y.<.f.t.m.B.B.m.b.a.p.i.q ",
"k &.<.<.<.4.<.q.3 M d.w.O.q.0.>.4.z.x.c.e.@.X.%.@.X.<.&.` 8 Z 3.u.m.b.5.p.s.u.t.p.l.d.P >.| #.#.#.<.&.#.4.1.p.u.B.S.d.A.y.d.t.q ",
"n <.0.&.<.<.r.4.1 > 5.f.6.f.9.p.d.l.q.d.<.#.<.#.|  .<.@.<.m C -.8.s.7.3.y.u.S.b.M.v.m.A t.#.#.+.#.%.<.<.d.5.5.a.m.m.a.z.d.c.5.q ",
"g 4.q.@.<.<.d.$.5 > V $.$.d.q.w.2.a.c.r.&.5.4.$.4.$.2.<.r.m C *.3.p.f.7.8.u.m.7.b.M.t.O.S #.#.>.` | ` _ _ a.q.Z.f.H.g.c.d.q.q.8 ",
"t q.r.#.<.0.w.g.g , y L <.e.y.m.y.l.z.w.<.o.a.l.q.4.6.4.d.g M 6.o.f.f.v.b.y.g.p.v.A.d.5.P _ ] #._ _ ] ) _ w.y.V.t.f.m.l.N.m.>.9 ",
"j ] 4.] <.2.A.Z., 1 1 1 #.4.2.I.l.l.f.4.>.$.X.f.f.f.y.r.w.o.; 6.=.f.v.b.M.p.m.t.p.n.5.;.k 1.] ` ) K ) ) _ ] 5.y.m.b.f.l.i.i.#.6 ",
"t A <.>.#.4.g.$.n > = 1 V <.w.Z.l.i.q.N.$.4.q.d.g.m.g.4.q.W 6 ( 7.s.f.v.y.8.p.p.l.i.i.$.c o.{ | L ) ) L _ T >.p.q.g.z.N.p.i.$.3 ",
"< L V { W 4.>.W F 3 m 5 e Q x.<.f.t.q.y.t.q.y.>.4.>.q.g.w.M f / 7.b.b.A.f.p.v.p.5.<.l.U I ;.q.$.K L L J L T K ] ` X.q.i.<.t.B 3 ",
"q 3 < 9 s V j t = D.q.j > d Z.#.m.l.z.f.m.5.y.y.r.g.V.c.i.L h R y.b.f.f.5.y.y.5.n.y.t.K d } >.| T H G G H M | | k.#.) _ L W 6 2 ",
"V = , 9 s M &.e l 6.t.5., 1 z.1.d.f.n.f.A.5.d.4.r.a.l.4.r.S < l 7.b.b.y.5.s.f.f.i.1.j.` @ x V T G A M d q q = V d b J A s < < < ",
"d = 4 t X.e.k.F.Z.Z.V.f.W > >.N.w.f.N.m.m.l.N.i.5.5.k.l.5.d 3 [ s.a.4.f.p.i.f.w.q.5.<.] 4 0 i i 6 < $.W  .o.$.$.M g q q q < 6 < ",
"# d W $.0.0.w.e.d.w.f.d.f.# y i.2.a.q.f.m.t.p.p.m.y.z.<.0 l c 5.m.c.o.r.l.e.j.y.<.e.<.#.b u 9 3 *  .q.>.<.t.y.V.q.z.a.O.O.O.6 < ",
"q e.<.| &.<.q.<.q.$.r.w.d.< 1 l.&.$.>.t.q.d.d.N.t.A 2 % t B g D C 4.<.p.q.q.d.q.e.e.#.9.N 4 8 ; M d.| o.<.5.r.m.0.i.d.6.4.6.q ; ",
"B r.` 4.<.e.0.0.d.d.w.w.r.T = W &.<.$.0.<.J d 5 >.U 1 1 m q 6 - * g Y l { D ' 5.` <.#.U 3 s u t w.$.#.<.4.Z.G.G.k.w.d.4.A 6.C ; ",
"n @.r.@.0.r.q.f.q.q.e.i.r.2.# - > # r t t o.o.c.y.5.0.#.n 6 ,   - o % + 2.h < . 3 . m 0 : , 4 n f.&.X.l.w.w.l.F.c.r.w.4. .6.W < ",
"y @.q.@.X.0.r.q.q.r.w.d.r.X.d > 2  .I.x.c.,.2.>.q.q.o.O.M 9 Q t.2.! o.[ ' 4.$.5. .- j t ; 9 ; P 4.@.$.>.d.d.f.N.w.c.w.$.2.2. .; ",
"M #.&.&.' 0.r.0.0.e.0.0.4.' #.> ..x.#.$.o.X.k.q.5. .B B R , o.L M G H A L H L F &.l.z.q.K q , 0 i.$.2.s.5.p.V.l.r.r.6.2.6.$.$.2 ",
"B 0.0.$.4.w.&.@.&.0.$.4.$.&._ V j r.@.] <.5.m.8.,.-.! P l p n M K L L #.<.&.| @.) ' ' &.<.W p 3 _ ' y.d.$.t.m.l.h.h.a. .6.$.2.6 ",
"n <.0.&.$.#.W <.0.4.X.$.4._ ' | , N.9.| +.1.q.6.4.g.H.R.x.t d _ _ +.] #.<.<.w.<.] ] @.&.0.w.9 3 <.` 4.w.<.a.H.d.h.h.w.O.6.6. .j ",
"l <.#.@.<.@.&.4.$.] <.X.<.] $.| d n >.#.<.#.4.4.5.l.d.i.q.n 9 F r.@.X._ &.&.4.q.X.&.] ] 0.4.0 $ X. .$.a.4.a.g.w.r.h.6. .4.6.X.C ",
"q z.0.+.<.&.@.| X.$.' +.@.<.] ] V 3 P #.#.<.s.q.y.l.d.z.k.T , #.a.&.<.$.#.0.q.0.0.0.<.o.r.x.y s 2.X.q.d.d.r.z.a.w.F.4.O.2.6. .M ",
"2 d.e.#.' <.#.@.&.+.@.X.<.4.0.e.T > 0 { #.' i.d.5.N.y.y.q.n , L q.r.r.4.k.w.d.w.d.w.r.4.x.x.H s y.` o.d.a.g.V.c.h.a.6.6.6.O. .q ",
", w.r.<.+.] #.$.$.+.#.<.] 0.@.' U r = = i.+.+.<.4.9.0.q.2.q 3 Q X.0.w.d.z.z.r.d.f.d.r.i.c.Z.k ^ o.a.q.$.6.6.w.h.r.6.O.6.6.2.l > ",
"= X.w.&.X.] W ] <.@.@.@.X.$.' _ T t O * J 1.#.#.5.>.y.d.' 2 - 5 L i.i.w.z.d.d.r.m.5.$.o.5.B s B ~ ` $.y.6.2.k.d.6.6.6.!  .' l > ",
"- ; n ] X.] &.| 4.<.<.@.] W _ T H = 0 , % n #.+.>.5.| B 6 - & # 9 J ' $.{ | W J N k w B s 9 g z p | $.q.a.a.w.$.O. .W  .! D > > ",
"= < # - r J 0.| 0.] #.` ) T 2 2 % % 4 0 % = , % % , , % = # # 2 q - 5 j J Q R m 9 0 - , - I p h f f g c R D R C l l g 6 q > ; < "
};
