/* XPM */
static char *tile000[] = {
/* columns rows colors chars-per-pixel */
"64 64 151 2 ",
"   c #1C0C04",
".  c #220E05",
"X  c #241006",
"o  c #2C1206",
"O  c #2D1408",
"+  c #341606",
"@  c #391707",
"#  c #3B1A07",
"$  c #331709",
"%  c #3B1709",
"&  c #35190A",
"*  c #3B1C0A",
"=  c #431D07",
"-  c #431E0B",
";  c #491F0B",
":  c #461E12",
">  c #462007",
",  c #44220C",
"<  c #4B230D",
"1  c #4D2A0E",
"2  c #52260D",
"3  c #59270D",
"4  c #542A0E",
"5  c #5A2C0E",
"6  c #51320F",
"7  c #5C310F",
"8  c #452510",
"9  c #4B2510",
"0  c #4D2A11",
"q  c #522611",
"w  c #542C12",
"e  c #5B2D12",
"r  c #5A2E19",
"t  c #473211",
"y  c #4C3513",
"u  c #513511",
"i  c #5C3213",
"p  c #543A14",
"a  c #5C351B",
"s  c #602D0F",
"d  c #62320E",
"f  c #69320F",
"g  c #71390F",
"h  c #612D12",
"j  c #633413",
"k  c #6A3514",
"l  c #643A15",
"z  c #6C3A15",
"x  c #623518",
"c  c #6A3519",
"v  c #64391A",
"b  c #6C3C19",
"n  c #703714",
"m  c #733C16",
"M  c #793E16",
"N  c #733D1A",
"B  c #793E1B",
"V  c #6D421C",
"C  c #744217",
"Z  c #7B4117",
"A  c #74421B",
"S  c #7B431B",
"D  c #764E1F",
"F  c #7C4A1D",
"G  c #6C4320",
"H  c #754221",
"J  c #7C4521",
"K  c #734B21",
"L  c #7B4B21",
"P  c #7E5123",
"I  c #834316",
"U  c #834817",
"Y  c #8B4B16",
"T  c #83451C",
"R  c #8A451D",
"E  c #844A1D",
"W  c #8B4B1D",
"Q  c #914B17",
"!  c #914D1D",
"~  c #994E1C",
"^  c #85521F",
"/  c #8B511E",
"(  c #935115",
")  c #93521E",
"_  c #9B541E",
"`  c #95581E",
"'  c #9C591E",
"]  c #A4561E",
"[  c #A45B1E",
"{  c #814523",
"}  c #884720",
"|  c #844B21",
" . c #8B4D22",
".. c #8C4F28",
"X. c #924D22",
"o. c #994F26",
"O. c #984F28",
"+. c #855124",
"@. c #8C5223",
"#. c #875825",
"$. c #8E5B27",
"%. c #8D552A",
"&. c #8E5B28",
"*. c #935423",
"=. c #9A5523",
"-. c #955924",
";. c #9C5A24",
":. c #935529",
">. c #9B552A",
",. c #945A29",
"<. c #9D5B29",
"1. c #A25623",
"2. c #A35B25",
"3. c #AA5D25",
"4. c #A45728",
"5. c #A35C29",
"6. c #AA5D2A",
"7. c #B05E25",
"8. c #A65E32",
"9. c #AC5A31",
"0. c #9D6125",
"q. c #9E622A",
"w. c #9E6432",
"e. c #A46126",
"r. c #AB6226",
"t. c #A66827",
"y. c #A4632B",
"u. c #AB642B",
"i. c #A5692D",
"p. c #AB6A2D",
"a. c #B0642C",
"s. c #B16B2D",
"d. c #B1702F",
"f. c #A46432",
"g. c #AB6532",
"h. c #A56A32",
"j. c #AB6B32",
"k. c #AB6C39",
"l. c #B16532",
"z. c #B16C33",
"x. c #B06C3A",
"c. c #A67033",
"v. c #AC7134",
"b. c #AE7239",
"n. c #AC7A3C",
"m. c #B17234",
"M. c #B27A36",
"N. c #B1733A",
"B. c #B1793C",
"V. c #976A4A",
"C. c #B27440",
/* pixels */
"i k l.u.t.i.i.j.p.b x +.h.O S #.V i E i.t.;.1.3.%.+ 0.;.*.f.f.4.*.-.b < 2.2.2.;.W ;.*.q.r * o h *.S q S -.;.v.S < p.<.4.y.-.h.h.",
"m o s.r.u.t.i.u.i.w.&.< X A 2./ d.<.< / j.u.6.6.l p t.[ -.>.f.=.:.*.*.- j ! 2.5.Z *.y.y.h.H 8 k.<.l ..>.*.W -.$.2 g.<.e.-.f.f.q.",
"s.o ;.z.s.t.p.u.t.i.b., ^ l.5.;.n.<._ < N z e e * m e.W W ) <.w.8.-.*.E W z ;.e.X.q.c.h.h...< w.h.@.h 4.e.0.q.F w u.5.4. .y.y.5.",
"M.; - l k 0.p.p.i.y.p.j j a.g.f.y.j.S -.m 7 z C j Y ;.R ` *.>.h.>.| <.y.3.*.U ;.T :.f.y.h.w.8 %.b j q W 2.;.-.k J i.;.,.@.t.y.h.",
"z.y.  L w < 5 -.i.p.p.*.7 a.u.t.j.| N j...5.5.i.j N e.2.2.-.0.f.F i u.y.;.2.) - F y.5.e.g.i.| O N @.>.F -.u.*.E X.y.;.=.=.e.t.f.",
"w.C - C.z.t.j 2 { z.l.I # e.e.r.p.c @.>.o.y.<.0.-.j b u.<.S R F C e d e.4.u.i z y.3.=.z i F e @ k.5.f.5.*.=.W ! =.>.0.-.=.;.q.;.",
"b.< A p.j.j.N.y.s <.M.m - j.r.Q j h =.=.=.<.4.q.j.i.< >.H  .3.y.u.j.z * Y W < ! R Q T S / |   F 5.8.5.i.W 4 B W S <.5.;.;.<.0.y.",
"$.< u.5.y.g.j.m.| < m - C p.h - T i.5.y.5.W u.y.y.k.w :.f.u.*.2.y.<.p.E o o @.5.I ) ) =.y.f.$ 4.O.<.y.<.j ) u.Z e u.t.;.y.0.<.t.",
"L k p.;.*.2.y.j.S *.U 1 w @ k y.g.u.5.j.,.N t.u.h.z.w w i F T S @.y.y.*.i b N W ) ' e.;.<.w.O *.:.=.2.E / R ! 2 i e.;.3.q.L <.h.",
"j *.<.F 1.-.i.,.F 3.y.z.j.C , 6.>.;.5.:.S  .S F @.i.@ i ;.;.W E T ;.y.w S p.*.Z ;.2.4.*.q.u.e , O.<.2.y.p.W I + , v.4.u.| A p.5.",
"y.p.S N u.e.5. .4.u.h.f.j.@.* 2.1.2.*.N y.t.-.-.=.- 2 m.u.5.y.4.4.p.9 w u.-.2.@.-.2.<.;.<.y.g.$ S 4.' ' S F u./   ,.T A $ - F *.",
"S =.l *.4.i.<. .u.;.>.y.j.a V s.u.3. .) 5.i.j.i.<.* y.g.5.y.8.5.p.b * y.f.5.;.) I ;.i.2.;.f.*.& } ! R S S p.f.j.<   * < @.E = * ",
"; - * y.u.5.-.5.5.4.;.p.S * =.,.m j j ! <.y.h.i.>.- 0.u.5.y.5.j.,.0 0.S -.6.-.*.=.E E m i d O $ 9.1.2.;.W y.j.j.- , j.u.5.y.k.j ",
"j.e.w $  .p.4.2.;.b z E - m *.C n R -.k E u.i.u.a., | u.4.u.g.m.L A z.-.k *.X.*.<.=.J <.y.| H , j 2.2.y.) -.y.W $ } g.4.5.5.u.6.",
"0.;.p.C # k ;.u.N z / S * k <.;.;.! 5.y.z y.4.g.2.S u l.2.m V A j *.h.d.S B u.V. .*.=.y.k.f.>.<.0 j T y.e.=.R m < 8.5.<.3.;.<.3.",
"-.-.e.j.-.< - M 2 ;.j.p.y.- T y.-.;.2.i.N k 3.p.p.;.* / Z I -.1.t.i.e.<.O.j =.X.4.<.W ;.f.8.,.,.|  .W E -.E X.4 b p.2.5.;.2.=.-.",
"=.-.;.h.j.w < w =.2.0.t.y.<.i W -.2.5.0.g.k k R u.A 2 2.=.e.! e.e.p.y._ i N =.=.` -.$.1.-.<.h.@.<.5.5.;.e T ;.S j ;.5.0.;.;.;.e.",
"=.0.) h.F < u.-.u.;.-.y.2.u.-.e y.2.;.q.>.%.< z i . ) u.1.h.-.2.p.l.X.= z p.<.2._ _ ' 2.*.q.k.b E u.4.3.j _ 1.3.z k *.>.) =.u.-.",
"=.' U >.i z u.1.2.y.2.1.T X.2.i ,.4.<.<.*.@.Z 2.a.w - a.p.p.f.2.0. .= ; 5 j B X.=.2.-.=.*.$.| A v i z l k 2.~ 3.M l ;.5.<.,.*.W ",
"W *.*.0.0.* ` ;.;.;.=.! T B 2.+.x u.4.>.;.S r.u.e.p.* , C h M S < < U r._ k k k R m e F S ) 2.p.p.-.e $ S W ' a.m z 3.4.2.>.5.2.",
"=.y.;.q.i.   .;.=.! R ~ _ R @.u.l k { =.W m p.u.u.a.B , z z # z e.a.p.0.p.3.y.-.z n ) _ @.u.;.;.0.p.| S -.W -.p.T N 4.;.y.5.<.3.",
"1.@.W 4.*.O -.-.R ~ o.4.*.E S o.n B T W E k 2.u.u.;.M r.s.m.j S p.r.s.=.;.=.<.t.;.2.*.z | A S S ! y.w *.6.;.*.-.=.z u.1.2.=.5.<.",
"*.5.N z - - u.4.o.2.*._ S -.e I 2.u.u.u.p.W I p.W ) r.s.p.m.W < e.p.-.z -.y.%.=.r.e.j.< j >.-.;.2.S 0 j.u.4.R E y.B *.=.u.S *.5.",
";.<.5.8.k % e 5.u.W I S z y.w ;.2.2.-.y.3.u.f ; 2 5 4 j *.m.;.- m.E 2 0.i.j.-.S / @.| , p.u.g.5.u.a E  .*.2.>.T =.M ) g.u.e ,.3.",
"2.;.-.=.2.y.z 9 N M r.p.*.*.j X.2.4.=.t.y.y.@.- b.g.>.*.c A F - C 6 -.j.i.<.| <.,.q.l 5 l.t.u.y.p.a p.2.z X.f.>.! M 1.u.-.h 6.3.",
"' =.;.-.;.j.,.0 b -.-.y.u.y.e :.4.-.*.4.y.0.E < i.y.j.j.>.v m b V < / -.2.@.-.p.j.j.T 9 l.y.u.,.#.b y.p.o.b O.=.;.-.p.2.E l i.y.",
") -.*.=.*.0.v  .r.y.e.;.! 2.b W 4.;.-.1.<.p.A x y.2.;.j.@.X.u.j.N.V b j.5.F *.t.j.f.p.w L u. .k E 5.y.2.B m 2.2.=.2.;.Q 2.S B =.",
";.=.*.` *.-.A i 2.2.=.X.T W *.z 2.3.2.e.4.p.J h 2.) ;.q.@.>.i.y.j.v | <.k N C T u.3.t.-.0 ^ E ' 1.t.j.X.* m T T _ T j ! 7.T A 6.",
";.>.2.;.;.y.-.* <.*.! ;.m R r.k W t.4.<. .j.F R @.F p.y.X.u.,.5.t., =.F  .2.j.F N 3.p.j.e  .;.t.*.t.f.3 d k n S M k =.k R W S u.",
"=.<.y.*.) r.N 2 u._ 2.2.< ) =.2 A 6.6.F < /  .u.S E p.y.<.y.*.N x $ @.y.5.<.y.g.J e m v $ ;.a.u.y. .< n d.s.a.s.a.*.~ @.F R C =.",
"5.<.=.W ! =.B s W 2.=.2.m ) R 5 O 5.S 8 b 2 - 2 - 9 *.l.u.u.z | =.L w T u.y.3.i.g.A N >.N + z v e = ;.a.j.6.u.g.W U <.u.*.X.B } ",
"5.y.T W k k S R R j R Q Q [ 3.p.4 . < | y.g.;.*.-.j - e k W e t.h.j.i.N A g.5.<.;.W *.u.p.S , @.u.* -.s.6.j.g.*.v j.j.5.u.;.S ) ",
"-.h.j %.3.2.;.%.N S k ) [ ] ' y.i.O 5.6.1.<.2.<.;.p.i.,.- <  .t.0.y.=.u.V L f.5.q.N i.i.4.W ) a.e.< k C *.F T k 3.f.y.g.g.>.S T ",
"e.j.u =.g.f.<.g.6.<.S 2 I 2.Q =.X., 4.2.2.2.=.1.1.;.j.<.i e.y.e.y.=.J T y.v B J S E 1.4.X.*.2.*.Z / u.S *.<.T e E W  .6.4...-.4.",
"q.@., b ,.i.y.X.N ,.u.%.< * e S k < u.2.;.=.;.2.=.;.-./ 0 j.2.5.*.! X.) t. .b *.N 2.r.r.0.a l.<.U a.p.V q.p.*.S 3.g.v W p.,.A u.",
",.r ..@.V H C b q.j.f.g.| w 8.3.*.j W 2.-.) -.*.*.=.W i.w j e.=.} =._ ! I B 2.6.C E [ a.V @.p.6.Z ) y.A 4.e.-.S *.5.@.z t.*.G D ",
"y %.p.i.;.f.z q.y.f.h.b.L b j.6.y.5.j E 2.;.=.-.! -.;.u.W - u.R ;.;.e.) k I 3.<.e.E W $.b b.u.s.A 7 ) ;.2.z.-.k =.r.e./ %.t.j.V ",
"K A u.y.i.h.V 0.u.t.u.p.,.i  .F X.u.z B 4.1.<.4.2.e.y.1.M ; 6.2.=.2.u.=.j X.y.3.2.W U @.i N.u.*.e i e < z / c n 3.2.r.Z ) c.e.N.",
"C , N F p.p.+.) E l j E p.$ b S W =.U b 3.2.2.<.2.2.3.2.j 3 n ! 2.p.2.z e 3.=.' e.T  .i.i C 7 4 -.l.m.;.A e a  .2.' e.F i.c.u.p.",
"* -.q.F z z w , w C @.F * 2 g.y.;.2.;.B *.2.*. .u.2.4.<.* 5 2 - 2 4 B x B r.2.;.[ R *.t.0.i.V 2 m.u.i.b.E u ,.} S ) ` E t.d.p.z ",
"q._ ' *.H b w i.p.g.j.w.* 4.3.8.y.) X.) ! ;.j | z.p.u.n c u.j.y.-.L - N A S S ) -.Y ) =.h.m.A a g.3.g.B.z l z.p.u.Z +.r.r.d.p.o ",
"&.-.=.3.p.f.e y.;.;.j.F < u.=.5.;.;.-.;.1.2.z 2 -.M ; f p.2.y.j.y.U < <.p.;.X.S k j.p.2.c.t.4 -.j.p.u.$.- < ;.A z z 1 C S ^ 0.o ",
"< -.<.o.4. .a =.2.-.i.*.< ! X.3.1.2.2.u.y.2.! d z / o E g.6.5.f.h.W < u.2.r.e.t.d z U _ v.E b m.y.u.S H ,.v z -.*.>.E E T l & , ",
") C m 3.=.*.l p.p.u.t.2.k T 6.~ ) 1.2.2.y.y.Z t.3.z.N < y.2.<.<.;.[ g ;.[ e.2.( h < Z 2.m.F S m.j.@.z j.m.H %.2.y.z.;.-.r.z F j.",
"<.4.j u.p.z.W j m f I -. .5.=.} S N E 2.y.0.; <.6.p.T E y.y.;.*.m ] ~ ( ' [ [ [ m 3.-.p.i.i.0 S A A W 2.i.v *.1.i.j.,.h.E N s.u.",
"2.y.i g.u.l.=.4 m T j 2 4.5.4. .@.r.2.r.y.y.* y.5.u.1.;.y.j.u.p.C > _ 2.' ' ( Y S p.;.u.i.j X , -.s.;.p.v S p.r.B.z L j.5.} 3.p.",
"i.F N g.;.! W  .d.l.l.l I 4.t.q.z [ e.e.=.2.+ u.j.u.i.5.y.i.2./ *.c * R r.( ' U W p.t.y.m O %.8 u j q * J 6.2.v.F w y.u.u.U M r.",
"2.| X.y.3.u.) I =.1.2.@.w y.e.%.A S a.j. .< - i W 6.j.u.6.m m / <.6.A * 2 5 2 Z m -.i.N.L b p.=.T f.y.& =.;.r.m.j w.j.t.2.[ d [ ",
"s.r.1.e.p.p.! M W 2.r.2.S ;.*.W +.p +.<.w  .g.>.b c S T j C j.h.5.2.0.*.. <  .-.! ! / j.A T 3.u.5.j.<.* ;.2.~ F w b.j.y.5.5.< / ",
"- 2 Y j.3.u.z j 7.a.2.r.W T ;.j.m.,.t t *.g.u.j.-.i.*.5 W u.i.f.h.g.f...< k.g.3.2.g.k /  .T i.2.<.h.e.2 M u.6.N i B.x.g.u.S $ - ",
"<.N < w B E 9 4.3.[ r.u.T I <.i.2.p.j.p E u.u.i.e.i.0.c u.<.y.f.<.h.b.F , j.y.t.t.m.w @.;.-.u.4.=.;.Q _ M _ u./ > Z Z g e k 2.j.",
"z.s.d.V e N N u.r._ [ r.N =.p.y.2.u.j.^ u 2.2.e.i.i.y.j y.;.y.2.2.i.j.| 2 z.j.p.p.E * 4.6.u.2.y.p.a.b Z [ _ 2.p.F Z ) . B l.p.5.",
"y.b.u.l e T } B ! e.r._ E p.p.p.2.p.p.< * z j / e.i.*.S u.u.p.W ` t.e.p.< i 4 i i e b z =.f.y.<. .*. .< Q 6.1.) q.t.B.* l z.g.8.",
"j.M.N.* *.p.p.<.S Z ' Y I e.p.p.2.' o 5 y.p.0.V e.e.y.A , 4 - , - 2 ` u.  z E ! R *.j.*.b C S k | -.p.@.< I ~ -.j.c.u.* H u.5.6.",
"j.M.M.$ <.u.p.u.p.W j z.2.2.p.r.p.= * p.1.2.0.K < - , o d N S <.u.-.i X * j.3.2.u.2.y.2.p.| j 6.z.k.g.i.J - ~ y.v.i.E * g.j.h.e.",
"e.#.j . S u.+.m C E < 5.2.-.z.s.t.o P p.Q ( 2.0.>.,.l z j.u.u.5.i.p.a o u.4.<.4.2.-.;.t.z.C *.p.u.f.j.k.n B u.i.v.;.2 | y.y.j.u.",
"j b | <., z F j N A q e 5 h 4 S p.  i p.-._ 2.2.4.j.e S t.2.4.y.f.b.* k 3.1.2.u.e.-.E t.p.S e.p.p.r.i.N.w *.3.t.i.C j j.g.y.2.y.",
"X.N.z.B.b <.p.u.z.j.y.) <.<.| 1 . $ 2 z b.f.4.;.2.g.w F =.2.) ;.i.y.. ! 2.*.3.y.e.e.V k F z 4 m j i -.s.m S 2.j.m.b T p.g.v.p.S ",
"r.u.j.<.w t.-.) y.g.i.;.p.n.&.* H i._ @ m u.2.*.*.*.i @.*.<.-.2.i.u.* j 4.*.2.0.2.2.,.C < - S N S A k ) * N 1.t.u.q.< 2.y.@.T 2 ",
"-.2.z.V | *.) ;.<.j.f.y.p.c.- L B.N.z.*.2 5 ! / *.3.j W u.2.[ e.5.u.W + X.4.3.;.e.y.6.l.C @.p.6.u.l.w.. 5 u.e.y.5.j.$ - j i J T ",
"p.u./ u 5.y.y.u.i.i.h.i.j.l 0 z.j.c.j.g.g.n C j.t.i.t.5 @.*._ r.5.u.B   4.4.[ 2.u.r.2.=.N [ [ ` I N.v < p.2.y.y.2.$ . * *.r.p.p.",
"C / 9 *.u.j.u.y.y.y.i.h.c.A C p.p.i.j.i.5.y.W u.i.i.j.2 & e < 2 R S . k <.) ! Q ! m k Y Q [ [ ] m p.* E 4.4.;.R + : k.& u l N 5 ",
"& & h.6.0.<.y.p.p.p.p.c.n.| i b.p.j.j.;.0.b./ -.0.b.H . @.z.g.S 4   ; 9.>._ ) F k W Q [ ] _ _ Q U a.e z ;.;.j.j.$ :.2.S 0 v A S ",
"+.& j.=.y.y.-.| S <.t.0.v.e e 0.y.j.i.;.e.y.-.0.L C * S  .j.j.j.y.@.+ ! 1.2.r.;.W p.I < I 2.Y g N T 5 2 4.2.j.-.w g.4.p.y.3.N.l."
};
