/* XPM */
static char *tile003[] = {
/* columns rows colors chars-per-pixel */
"64 64 32 1 ",
"  c #8E2756",
". c #8D265B",
"X c #8E295C",
"o c #922655",
"O c #942957",
"+ c #982A57",
"@ c #922758",
"# c #942B5D",
"$ c #9A2E5E",
"% c #9C305F",
"& c #A0305F",
"* c #8E2B62",
"= c #942D62",
"- c #9A2F62",
"; c #952F68",
": c #992F68",
"> c #963165",
", c #9D3264",
"< c #96336A",
"1 c #9D356A",
"2 c #9E386D",
"3 c #9B3670",
"4 c #9E3A71",
"5 c #A13566",
"6 c #A13867",
"7 c #A1366A",
"8 c #A2396C",
"9 c #A13771",
"0 c #A33B72",
"q c #A54175",
"w c #A74478",
"e c #A84278",
/* pixels */
"1>57578782266>8w06455-587=,--50e6112962,,518=<=128148708-9886855",
"#=,58,158951<00808>7585811,5--5977$#%651,7181==8,161855815&6877&",
",=75,8-5-,5>5888,6,>2-==<,,27551877$:1111--11O#8021168q1,&%5q887",
",##O$-51>,8#,551781,=--;42$1--782,,,55-5$$-1-,=&,#-186%$$2665578",
",$=$@=#,1&5>@,087-197:581177,8:81#>%--11-899-88>21,15651,7555681",
"5$#1,1><:&51#-878=1851558>687--11=#%55--859=-1><081158%,50800801",
"8#<:822015,,=1161##5758876,271-1,5#1,:=-,--244#-q96,5111-7828,5,",
"-=1120971>-<>74<55518-5855>-152-,15>=*-,$,$,17=,07,9#1812778715,",
"1=,--,75-1-:13487-57758:713==-,>,966>1>,$51508*-9--1920<1762-,,,",
";82$5,51-798&1>q5155-7451031$,,-1512-87$,,58081=-&55510319,-=1$,",
"408>887&58595,>008-$07:522=,,7$881$>,7%65879q6,#75,$,20e31$>=#,-",
"108887085775,,>688-,5555><7888,,74X2>,,,%788086>7811,8e0<X=<1,@=",
"##=67-08815,1<96,O$--5$66=87185684,>$$5&509q1>-17895-008>=&5185$",
"7,1=>$5751$,>77,>,-#-858824685,82>1%=85,580e6%$-1859=588>77&55,%",
"5%1,==7,2>55;:,57,+5,757102716221186,-8158788668#1065-,-=87&5&,5",
"5%,1,==,-,607=$8,-#-#-668918898216,66187257$56602,5-12,=$87$&$57",
"%%510=##-5$&85-:8:$5&-785115607%5,21>780866878667,$51-1-1586&&&$",
"6,251:-255-$75,=5-,5,5314<,%5,5$$81=,55588765,5-65%51&$,,1006657",
",:-1;-,8$-,8117:,5$,781,82=5,-,%,1# ,,56855781511-$,>5-5,1887198",
"+5$57=185-$:2-51;:5-8166061=>1-#=-#,,71,5$,$,,5855=X,-55110055,7",
"8,-5,<<1,--1%%16>,502-,808,=8>=#$>1$16891,15-789755-5,--11086755",
",$1-1=11,585%,,,85:-11-881$,8,@=118-,5668571565,5$=75,52558867&-",
"-5--=<5556,5,,,187-2-$$5--7,,%$#,>12,567156<4825--=90111-$558,,1",
"1$--=.-78$,1>##%-515-+O#=-#@,65=,1#-,17,,902808,5-2117,,1:89518+",
"%,$,-,$=9,185$,$$$$5-,-=17,,###=1>$7-5,5104316848187=-55$-817101",
",$185$-#,91,57#15,--5-o#-17$>>##:=$#-178889160987>,71185,-854421",
"-,1--5=,78,+78$,557&1-$#,1,771,8$#-7-:81716119911619>7801-9,8,>0",
",5&7-,#=5,75,8115:551,4=,1755,,55-1<=#$-5>88>=217204=01708,271>5",
"5,+-&5-10878,5$11857-724908088-5,#%##55-,751=41172,=201211,-,21,",
",,9=+51=7855%%$,5752=,98128855,><#@1--$5-<-<<8112<<,8,29856758,-",
",182-$$,15,6,$$#=8<<--<>##585$41,11465---#,14;$$==,17,12420080$%",
"5:$--->$1$$&%,,6-<;-5$9,>##=551-1161865$,-,990>,5=1557-q08w08095",
",01,5,51-,-#$8822=5$755-5$,1><,155,8660551985-558=#-,$,206865281",
",6,$8,515$,1&$$,8-5&2,:-$$5,322,569,0>,93198,5551=$>56%160%8568-",
"62>,:95--97,1###1=5-88,-%,,93871,-6581109007519-$,-1682,69,58078",
"6171->>=-,$51181$=,1815-#,4q1>65858,00807555---5---,181%861%0815",
"126010-,,-551>0875-7-51-,70e2>61&857$7,85$55-,,$#-168q2%566,5767",
",>885,,1#,$,,101$6-$-8-$,$511>56%871-,85-175>87+#=>126,,88675765",
"#=242,1,###18X15$-1<,-1+-$5,1=7658--27885-2,#,-=1,55121,6&$,8851",
"#5121,,2>,,##-7-1>212=1-5,,5=#->>>-1-58-5,,1752>75%51,115+,2867,",
"6,751--8e8-5=#---808-1 $57--=21:7,>,1,%6>,,966,#,5$417885$$5665>",
"1,-51$18855#=-$5=1,-11#>82--:8--,,=65552>887,%>>$&->#,5->-=$$,,X",
",-,5-%##$,$#=-$,-,--$,,-18=-5&5-,-#757812=-17,#$5-1<2##,77,,,$> ",
"21=751-#-$$-#-,-5575,5,5&71;-,5-%-15$711:--:52>297111,-,1571,1-,",
"252-,1+##-+#11-15767001&5&-58-55#%-5+-$7#---76<111106#$-8,,8>1,1",
"97199511$--=-89--6&888>7055981,,$XO$----#,,-O=*15,01##,$1#>-9256",
"51408,8,&5-#--,8--88881887877-1%+; $-O$+#2-11;-#<,1<$-11-=287$>8",
"1,6856%$57,+#87,1-888=#198&,51$,%$# ;#=##-2,=<7-,59=5$17128,1118",
",$%56&8,887,-86,7#,5,1582111,1$%$5,5X--$1171>,67685#%261=q5841=1",
"#<,7q811817-$,188,>>1-%558718817,,5$>&&$-5#,5878677=2901=08181##",
",>==$1>,-&5&-o-5775=,%%$55678604%,5,,,55--,908008558900$@,,,1686",
"5,1#=,77-555,-,,&11-#%-&5,5>171-,,,,,%,1-$10086875188075>>#X206,",
"%,$#11841,,-1$5,+15==,=-&$8-762,,%11##==$1128576,,911771,4>#181,",
">$-#2801-1-$,$658>;@109-,5-==<<<>#56X--21182,11%1811>,-8180>1,,%",
"$$&*,15755-+$,,70<=,$11#@== -<115,%><7,107687>,%,81,,=,1161105,$",
"1>2<1,#21,#-=$-8,#>%%11,8>,#117,6%#>88,76085,126,0801,-511<29151",
":1181#$>,1==#@=;$==1>6-,7-#$10&508>1055111,78>,17510;-7871>78865",
"1778111,212#1$#=#=#,7,-,80=+7558q5<,5%516,,,5##%><51,>09,#-%6889",
"8%0,12%2817,775=&&55181287>,6600561168655$,11=$,,,=,=#,55%@51,61",
"58082412477155=555861>1219#17q0877,>6865,5,,1%2,,,2*;,$-8,>=%121",
"-084086896,87,,565888727$1$=-0161,#=80066&&5,$,>-,==11$1%##O1q,6",
"711986884,666298556e88$$,,-#=->--- -89565,1,$$5-#8=;---1><62,21>",
"<*775580,,50861688755-51,11*$5,-,.@2q86,#,75,-5,,8==7185>8882901",
"815881621106q1168055%7111==1-557,1=7,-57,,,=,1>#11<48116,6888806"
};
