/* XPM */
static char *tile002[] = {
/* columns rows colors chars-per-pixel */
"64 64 214 2 ",
"   c #3D2C1E",
".  c #3C321F",
"X  c #3D3A1E",
"o  c #3F2923",
"O  c #3E3323",
"+  c #3F3920",
"@  c #41331E",
"#  c #423A1E",
"$  c #412D22",
"%  c #4B2F26",
"&  c #443422",
"*  c #4C3524",
"=  c #443C24",
"-  c #4B3B25",
";  c #45352A",
":  c #4C352A",
">  c #463A2E",
",  c #4D3C2B",
"<  c #533526",
"1  c #583725",
"2  c #533A26",
"3  c #5C3D25",
"4  c #553629",
"5  c #533C2C",
"6  c #5B3D2C",
"7  c #4C3B31",
"8  c #543E31",
"9  c #5D3F31",
"0  c #613F25",
"q  c #633F2B",
"w  c #623F33",
"e  c #454222",
"r  c #4C4425",
"t  c #4D4925",
"y  c #474229",
"u  c #4D432A",
"i  c #4E492A",
"p  c #514427",
"a  c #514A27",
"s  c #54432B",
"d  c #5B442D",
"f  c #544A2B",
"g  c #5B4B2E",
"h  c #55512A",
"j  c #5C522E",
"k  c #4E4233",
"l  c #554432",
"z  c #5C4433",
"x  c #554B33",
"c  c #5C4B32",
"v  c #54453B",
"b  c #5C4638",
"n  c #544B3B",
"m  c #5D4C3B",
"M  c #5D5332",
"N  c #5A5535",
"B  c #5B5239",
"V  c #654126",
"C  c #694527",
"Z  c #64422D",
"A  c #6B452C",
"S  c #624B2E",
"D  c #6C492D",
"F  c #71462B",
"G  c #73492D",
"H  c #7A4E2D",
"J  c #62532F",
"K  c #655A2F",
"L  c #7C522E",
"P  c #634533",
"I  c #6A4633",
"U  c #634C33",
"Y  c #6B4C35",
"T  c #64473A",
"R  c #694639",
"E  c #644B3A",
"W  c #6C4D3B",
"Q  c #714731",
"!  c #744C34",
"~  c #7A4D33",
"^  c #734E3B",
"/  c #7C4F39",
"(  c #645234",
")  c #6B5336",
"_  c #645934",
"`  c #6C5A37",
"'  c #65533B",
"]  c #6C533B",
"[  c #635C3E",
"{  c #6C5A3B",
"}  c #735335",
"|  c #7B5335",
" . c #715937",
".. c #73533C",
"X. c #7B543C",
"o. c #735A3B",
"O. c #7B5B3C",
"+. c #6B6036",
"@. c #6E633A",
"#. c #696639",
"$. c #706637",
"%. c #74623D",
"&. c #7B623E",
"*. c #756A3D",
"=. c #5D4E43",
"-. c #5E5343",
";. c #654E41",
":. c #6D4E40",
">. c #704F40",
",. c #645443",
"<. c #6B5343",
"1. c #645A43",
"2. c #6C5B41",
"3. c #66564A",
"4. c #6B5649",
"5. c #675A49",
"6. c #6C5B4B",
"7. c #735442",
"8. c #7B5542",
"9. c #745B44",
"0. c #7B5B44",
"q. c #715549",
"w. c #79574A",
"e. c #745C4A",
"r. c #7C5D4A",
"t. c #765D52",
"y. c #795D51",
"u. c #6D6241",
"i. c #65604B",
"p. c #6D624C",
"a. c #746243",
"s. c #7C6243",
"d. c #736A45",
"f. c #7A6B41",
"g. c #75624B",
"h. c #7D624B",
"j. c #776948",
"k. c #7E6A4C",
"l. c #7F7349",
"z. c #6E6051",
"x. c #756253",
"c. c #7C6453",
"v. c #7C6954",
"b. c #7B6659",
"n. c #7D6C5D",
"m. c #7E6B63",
"M. c #83542D",
"N. c #825334",
"B. c #825937",
"V. c #83563B",
"C. c #8A573B",
"Z. c #845B3C",
"A. c #8A5C3D",
"S. c #905B3C",
"D. c #8C613E",
"F. c #92643F",
"G. c #825741",
"H. c #845C43",
"J. c #8A5E45",
"K. c #845D4A",
"L. c #8A5E4A",
"P. c #905E42",
"I. c #885F50",
"U. c #826343",
"Y. c #8C6143",
"T. c #836C44",
"R. c #886847",
"E. c #83634C",
"W. c #8C624B",
"Q. c #846A4C",
"!. c #8B6B4C",
"~. c #916442",
"^. c #976744",
"/. c #92654B",
"(. c #94694C",
"). c #9A6C4D",
"_. c #847245",
"`. c #83714D",
"'. c #9C714E",
"]. c #836553",
"[. c #8A6551",
"{. c #846A52",
"}. c #8B6B53",
"|. c #816B5C",
" X c #8D6C5B",
".X c #916652",
"XX c #936B53",
"oX c #9A6E54",
"OX c #926E5A",
"+X c #9A6F5A",
"@X c #877156",
"#X c #8C7354",
"$X c #83725C",
"%X c #8B735B",
"&X c #967253",
"*X c #9C7256",
"=X c #95735B",
"-X c #9D745B",
";X c #A16F50",
":X c #A27355",
">X c #A2745B",
",X c #A67859",
"<X c #836B60",
"1X c #8A6D61",
"2X c #8B7466",
"3X c #947463",
"4X c #9C7561",
"5X c #987867",
"6X c #A77D64",
"7X c #9A8468",
"8X c #958072",
"9X c #A68169",
"0X c #A88673",
"qX c #B08876",
/* pixels */
"c c u s g m ' u.j g f a _ d 0.X.L./ ! I I ! Q q E T z z 5 m ( U - U ( S S ( U d c c { o.h.#X}.E.3XI.>XJ./.V.L.K.8.G.) { ( U d ( ",
"g r u s c s v.#.g h a _ M d Y W.~ / / ~ Q Q Z Z 9 6 9 <.{ {  .U ) U d ..( U ( g s d ( U 9.Q...U.].].>X>XH.^ K.J.L.H.{ ` ` ( ( g ",
"s x ( U f c +.f g r M _ _ g ( ]./ K.G.~ I q W R P A P 9.%.D.` ) ` g g.j.' U m ; l d T ) o.{.}.Y ] d qXL././ L./.=Xs.{ { _ ` _ U ",
"_ M g ( B u x g i M M +._ M { ..] W T } >.I I P Z Z P ) _.o.%.) S s & h.{.] x = = s ( o.s.Q.=X}.W I 3X.XJ.^ L.&X{.s.{ o.) ..( s ",
"s s ( c s M x s x f M _ K ( { o.( ( d z Z 6 P w A Z Z ] &.&._.U ) ( d v.X.!.].6.b r l { s.Q.}.}.D )  X X.X8.}.{.E.9.o.o.] ( ) ( ",
"g ( s f u i u u.P ) { j.a.' S U E r.P < q q I Z Z Z 3 ]  .T.a.o.' s c 0...} Y.(.Q.q.5.m 9.' ) E.W 9.].7.[.I.e.s.o.0.{ U ] U ( c ",
"g c s s c y u ( O.} Y.(.XX9.' ' x.r.P 9 r.I V./ I 3 6 ) a.0.O.h.k.d ' U.Z...Z.Z.Y.R.}.e.<.z.P E W K.r.q.q.q.b Q.k...<.) ] c U c ",
"l g g u s ' d 9.Y.| B.D.~.!.XXg.x.^ Y 4 |.! Q H.Z q 9 P P g.!.) T.c g.E.H.B.} X.D.Y.-XH.9.,.,.q.K.8.I.W q.w l b.o.h.X.( ..( ' c ",
"] l l z s l Y U.D.Z.| D.D.D.:XD.r.,.I P 6 P ! ! 8.^ P P {.U.X.) 0.Q.k.E.D.| O.Y O.H.:XZ.&X].3.].W T T W P R , 6.s.o. .) { o.( l ",
"U s 9.0.8.w.W R.F.B.B.| O.D.,XD.oXk.=...z P R z ^ :.P U ..Y U ) O.@Xh.XXX.X.} X.B.B.~.Y.).oX4.r.OX|.T W W >.:.8 {.&.` ' r.E.' 1.",
"c a.[.L.8.8.X.(.D.B.B.Z.D.B.F.^.'.*X4.W } ' P P P <.x.U .. .) O.H.k.2.9.U.B.} O.O.O.D.H.J.oX<.^ ].[.].e.:.:.^ z l O.( ] 8.,.W c ",
"E 5XW.W.Z.X.O.'.'.D.B.B.D.D.F.D.D.*Xw...R R W U 7.e.Y ] O.O.X.&.s.j.{ h.X.| J.Y.Y X.O.D.X.).7.E X.r...( 7 ,.= W 8 W ] r.r.c P 4.",
"E.OXJ.;XJ.Z.Y U.D.B.F.D.} D.D.D.B.:Xw.7 5 5 7...E 9.O.) } P } U.!.@Xl {.(.U.Z.B.| } U.H.X.J.0.R W W ( g ( ( g ; l 4.q.9.9.9.] l ",
"9..XoX).~.X.B.R.^.D.D.D.| B.D.B.B.Y.H.9.b.7 <.z R e.W U S Y ) 0.Q.v 3.U E.X.Y.J.Z.| ..Z.Z.X.<.6 U z g 5 _ { @.i k <.<.h.r.<.( d ",
"8.+X).~.A.Z.B.} &XL F.F.D.Z.O.B.A.X.w...E.{.b q.{ { S ..U ] 0.&.h.k v ) ..H.Z.) Y W O.0...W 9 P c g g ` f _ _ ( d h.0.r.6.f c ] ",
"0.[.J.).Y.A.Z.O.) D.B.} ! } O.Z.X...W w.8.8.h.4.,.P 9.' <.O.U.}.c.s R s W !.G.X.| } z E ' 8 b 5 ' ( g g ( g M _ ( M g.u.g t d ' ",
"] 8.(.~.Z.J.H.!.P U.A.| A.| D U 9.- P W X.7.g.|.f U c 9.<...O.].] s ( 5 W ^ ' h.Y W ! q.T z z E <.{ M _ J ( g M _ M a j g x h g ",
"' ..[.W.H.W.]. Xd ) 0.!.H.G.X.] s 2 P P ' { $.` i f s r.7.) ;.e.- T U z d 0.9.g 7.;.b v 8 8 x.b.) f.` %.f.j g g ( g f t t a e t ",
"_ T ] W.[.<.9.W T.U R d g.0.E 2 U S * P f._ ( ) N j x ..g.7.E z c  .O.g d Q.0.m - 4 z b ;.c.{.} z { d.%._ %.{ M j N N i # r h t ",
") k.T x.E - ;.9 T.U.J d d 5 g S S d ( ' K _ j g _ M n = }.r.{ l d U d U ( 0.r.z E E R 4.7.U U.} Z d U c ` { _ ( M j r i a t h _ ",
"( 9.b l , s v <.7X&.{ ` g ] J S  .( f ( J j g f j +.N y 2.q.E z s , s d  .O.e.l m T z e.Y R &.) z Y Y  . .v.9.2.{ j t e t j t j ",
"j ' <.E 4.2Xx.b.7XO.&.` ( ( U ) ( d _ g ( _ p S _ $.[ i r 9.T ..0.W 4.Y ] a.' 4 b ;.7.s.o.) O.Y W d } o.Q.c.<.O.{ j t e e h t t ",
"2Xr.[. XXXoXXX-X6X!.o.&...( d d S s ( ( g g j j $.K i.n E e.7.H.R U.E.K.U m * 7 3.r.v.)  .9.0. . .Y D...0.g.W E.a.{ + r t t h N ",
"r.9XoX6X.XoXG.+XJ.W.&.T.) J _ ( ( 2 [ r f r p f @._ 1.,.g 9.E.8.J.X.W.(.4.=.  O b.b.X.....X.O.z R O.) R.&Xs.c ] 9.2.X t t i 8X%X",
"XXoX>XJ.:XH.V.I L.8.!. . .J s S s d { c g y g t j *.1.h s h.0.J.X.D.H.Y.-X] > m.1Xy.R O.E O.U U W } R.R.O.{.2 ) O.6.u p r g..X4X",
"J.).J.J.J.K.V.^ 8.w.s.s.&.` S J J g ` c f g g h j _ N f u 2.!.Z.| Y X.~.(.E.x.m.w.q.}.Y T U R U ..) X.s.!.x.U R U - f = c E.K.K.",
"..V.G.X.H.I ^ 8.0.E r.Q. . .U J _ %.p.  & s - M B B ,.i u ( 0.U.Z.Z.Z.H.J./.W.b.K.c.7.P ) 5 U P U ) Z.O.k.v E d U s - 6.I.7.7.8.",
"G.Z.G.V.G.J.~ ^ R R }.&X .`  .J  .a.r r r = r u n g.p i i 9.!.D.G.D.0.J.G.~.OXx.R w.h.E 5 W 2 U d Y P w E.v m . - c s - b y.K.G.",
"H.J.V.H.J.W./ X.X.8..X@Xs.o.' J o.p.r - # d c -.g U U f r r =XD.~.Z.X.U.} J.(.]. X<.q.0.P 5 6.Y P R P Q q T $ 2 d g s & 9 W r.8.",
"K.W./.X.J.H.L.8.G.G.w.7...j.&.` { g u f f ( %.0.Y S S y # = { H.G.Z.X.! H.Z.X...8.r.T 8 d z <.I I X.3 A A I 1 E U o.S d P U r.[.",
"].0.r.4XL.K.W.K.7..Xw.R l 4 ' ( ( f ( ' |. .O.) S Y  .c X = 0...X.X.S P B.X.} T 8.XX].4.4 8 9 7.I F A C G ~ q P U  .2 ( U ( 9.] ",
"d d 6.<.^ K.OX8.8.R w w 6 9 4 l M B 1...) ( Y ) ( )  .' f # X + R } R w.8.z < Y w.XXK.7.8 9 4 8./ G F ! D Q ~ Z s U s S U U. .U ",
"o.l e.T :.R R >.w W w W ;.;.;.3.[ 2.a.Y Y J ` D  . .&.o.f r u - k 9.0.E 7.P Y d ..E...0.4.8 T P J.C.M.F ~ G G Y ) s ) Z S o.{ %.",
"9.7.:.e.T w w ^ w R 9 < 9 : : 8 9.h.) ( U Y ) z Y } h.h.k O m x l E k l 5 R ] T T G.X.8.5X4.w.r.E.~ F.D G A G ~ 6 U ( S ) O.O.o.",
"' <.^ P I.>.I T w I 7.T R 9 : P E k.U O. .O.o.Y ..O.O.s.{ ' 2 s u , b p.p.g d , E P ^ 8.[.7.r.R .XV.C.N.N.G H D C 3 1 Z g Y O.7.",
";.R 5 5 5 : X.q q 4 $ 8.9 R 9 E 9.9.} &.{ D.c ) ` O.!.s.g.2.d { { ' $X+._ _ j r o P z ^ ;.:.w.7.0.K.).A.H G A G Y 0 C q {.0.] ) ",
"..E. Xb.l r.! ! ~ X.R 1 l P ;.E b.E ) ) S } z R  .!.s.U.6.( 5 U O.d.#._ +.g a f + P W T <.{.}.E.r.0.^ ..! X.F C S V G 0 ! 9.W e.",
"^ ^ ..].E.| ~ V.F ^ C I 4 E 7.z E P U 6 ] s ..) ..D.Q.#X..U ( U @.$.*.j _ g ( r + ; 5 , $ 0.<.r.}.r...P Z F d D C C C Z 3 <.) R ",
"R W W ..W.~ N.H ! F A I P R s 5 7.Y z { 4 ) U ) U.U.&.9...) c c d.N ` J j g i p f +   o : 8 M 9.0.OXK.b & Z V C C A V 3 I 7...] ",
"....R ^ A.N.~ N.~ ! N./ I r.E.E 6.U U P l U P ( Y o.!.%X..g c M %._ j s j _ M r = - % o B u s u 0.d U l 4 r.Z H G 3 1 6 I b ..W ",
"W P S G ~ N.M.H V.S.N.V.7.0.E.h.<.9.] c l c.o.O.D.!.%XU U s c ( M _ N _ j g ` N { -.n y e e a M g.[.r.z z n.I 5 Z 2 2 * z E W W ",
"Y W R ~ F.M.M.H V.^.V.G.4.4 : : <.- c U e.d Y  .&.h.' l ) d ) j ( ( { _ d.N f j #.i #.t t X a k ' }.Q.<.5 & - U S g 5 d , =.' W ",
"Y ^ P Y C.M.M.C.P.P.V.K.P 6 q 4 $ s g S @ s ..s.r.' R - d s ( ' ( v.3.l.k._.u.N i h a X e y d x z.E.E.' g 5 = U * ` U g U l h.W ",
"z R W D Y.G N.N.J.8./ P I q 1 4 < < 5 & ; - s s u s , E R U U ` ) 3.b Z R <.g.*.#.h t i n ` U c d.h.E.h.<.s s , c U ( ` ` ' ' { ",
") <.R c ] Y ) S W R ..Z q q 1 < 4 * & v <X<Xc.E 9 ; l s d z O.U.k.b P R I R d._ i N f  .U S ( g 5.}.K.0.9.9.g d s s ( ( ) U ( e.",
"U 6.5 * & 4 6 q 6 8 / I A 3 6 6 4 : <.+XW.W.XX8...; & U U ` 2.) j.3.W z P f t j i -.d ( ) U ] ) p.{ }.<.<.O.o.f ( ' D g g { ) ` ",
"` ` ,.4 5 4 :.5 * E I q q A q S 4 ].XX.X+XW.0.X.8.9 x U U U 9.Q.k.T P P 5 s h r N U ) o.} Y &.o.6.E.!.9.] a.s.{ c ` ( ( ( J g S ",
"S ' ,.6 4 5 < & & : q q 3 6 I T 4 0X=XH.0.8.W ^ W ].=.s U U ' 7.W P R z ; u r = 1.{ o. .( ) &.U.3.r.E.r.' }.R.` &. .) d p S J ` ",
"g ( ' R { z & @ - m P S q w ! ..3X}.J.OXJ.0.7.7.W W m 8 W r.W.L.H.G.I :.9 , ,.k $X( ` U U ) o.R.x.9.0.e.,.r.}.s.%.&.) j S f J ( ",
"S J { x . & & = s s 4 d 3 W w.[.XXW.G.H.X.7.0.W ^ z 9 R [.].6XW.8.X.X.K.W z l 8 h.T U U P ) U.9.5.U ' d U 9.@Xs.f.%. .*.o.S s S ",
"_ S f s , , c o.Z U s z ' = P }.W.E.H.8.^ 7.Y ^ 7.E W w.[.4X.X;XG.J.! G.X.E 8 b z ..U ] o.O.U.k.n.' Y c R ' ' E { s.`.9.k.%.) ` ",
"` ) ( d U U ' Y U U l i = u x W.H.0.0.W 8.8.G.K.7.:.8...].+X/.oXG.X.~.J.H.8.5 z ; s l ] Y  .U.5.c Y d l ] Q.2.M u , `.a.` T.` ` ",
") ` ( c 0.g Y S )  .,.r f r ' }.w.7.X.0.7.8.8.W.J.L.].P R -X>X(.W.J.8.J.H.:.Y - 5 s d s - s 4 U c z d ' W 9.R c ( s c 1.' ( f c ",
"g g _ { T Y  .( ] U.B r & x W %XE.[.E.G.^ 8.^ L.G.8.] R d 4XoXoXJ.X.G./.K.<.8 , d s ) S , s U f ( ] ] :.E Z E z m U U s s = s u ",
"d ) 9.) ) o.Z.U Y R.' M -.5.-.}.].OX[.8.[.>.K.].w.W 7.W P d 9X-XW.G.H.[.I.W W <.z 5 P * d l s ( 9.XXW.H.G...E ] R Y s g f g s g ",
"f c ' O.) ) U Y  .O.9.x s = y l :.W ' ].r.4.5Xq.P T W ^ E 4 {.J.G.G.XX3XI.:.P ;.z E 6 > - , ) ( 7.XX/.J.Y.W.8.P ..W b d - f s s ",
"U ' a.( U 5 U ) O.s.' z U n r s E m T E =.r.R Y P P ..6 R P 5 L...L.b.5XK.7.T 4 w 4 9 z 5 s ' {.6X/.Z.X.X.L.Q R W.W W c 5 s f s ",
"g ( 2.v.U m s.o.h.Q.g.2.) U c ] ' ,.W z 3.X.I ..W 4 ..^ ..^ 8 E 8.b.,.3X7.K.W T w W W > s ] %X9XL./.(./.8.K.^ V.W Y.W f - p f g ",
"2.<.9.( c E U ..O.g.s U S U U { c ' R 5 q.0.Y P P P P ....G.s z t.z v =.E T R l ^ :.9 ; : c [.9X6XoX(.G.J.W.^ L.G.K.^ b g s g j ",
"<.] $X' g g c ,.E ,.d ) U c ..] s.<.* l P 6 P ^ R P R Y ^ W R s l z s U U 5 7 R R T T 4 6 {.}.5X(.J.,XG.8.I /.K.(.W.XXd g s ` m ",
"..9.9.T c ` s c m U U ..) S ) ) W ( P Z 6 E ....X.W 7.U W 5 2.) g U 5 , l U - 9 R 8.=.7.7.0.{.5XoX:X:XJ.J.G.L.P.J.G.^ e.( c ' E ",
"] ] 9.s x ' c 2.' U ( ( - d O.O.X.! Y G Q 6 6 : 9.].t.E <.6.O.] ) U s ( { U d x T t.4 0.].r.6.0X>X+XJ.J.G.L.G.P.w.XXW ' U g U ( ",
") U c ( ' E 1.9.<.d s d d g  .| | ~ ! G F ! A 6 q P 4 , c c o.{ c ( d g U d Y d b s P O.{.H.0.K.-XoXoXJ.8.8.G.L.>.L.e.' ` ( ) ) ",
"' B s c c c { ' E s 2 - d S H.Z.V.N.H G C ! F C S I P 8 5 l 0.` ) U ( s S ( d ( s z c 9.n.E.E ! XX+XJ..XG.>.w.8.I.w.Y ( ( U ..S "
};
