/* XPM */
static char *xpm[] = {
/* columns rows colors chars-per-pixel */
"64 64 120 2 ",
"   c #2E110A",
".  c #35160F",
"X  c #351712",
"o  c #3C1C13",
"O  c #3C261C",
"+  c #3C291F",
"@  c #3D2B21",
"#  c #441C14",
"$  c #411E19",
"%  c #452116",
"&  c #4A2516",
"*  c #452419",
"=  c #45291B",
"-  c #4D2C1C",
";  c #512717",
":  c #502719",
">  c #512E1E",
",  c #4B2F23",
"<  c #542F20",
"1  c #463226",
"2  c #4E3223",
"3  c #433128",
"4  c #4A3629",
"5  c #4D3A2C",
"6  c #513323",
"7  c #5A3624",
"8  c #523B2C",
"9  c #5C3D2D",
"0  c #4D3C30",
"q  c #513F32",
"w  c #583F30",
"e  c #5C402F",
"r  c #4F4035",
"t  c #544235",
"y  c #5C4636",
"u  c #5D4A3B",
"i  c #604B3C",
"p  c #645345",
"a  c #67594B",
"s  c #6B5B4D",
"d  c #775F4F",
"f  c #785F4F",
"g  c #6E5F51",
"h  c #7B604F",
"j  c #6D6257",
"k  c #736254",
"l  c #7B6554",
"z  c #746558",
"x  c #7C6859",
"c  c #8D5E49",
"v  c #955D47",
"b  c #9C5E47",
"n  c #955F48",
"m  c #9D5F4A",
"M  c #A35F45",
"N  c #A15F49",
"B  c #82634F",
"V  c #8B614D",
"C  c #94634D",
"Z  c #9B634C",
"A  c #9D694F",
"S  c #836451",
"D  c #896551",
"F  c #856855",
"G  c #8A6854",
"H  c #936650",
"J  c #9A6751",
"K  c #956952",
"L  c #9D6951",
"P  c #A76146",
"I  c #AE6246",
"U  c #A3634B",
"Y  c #AC654C",
"T  c #A5694F",
"R  c #AD694E",
"E  c #B16447",
"W  c #B1674B",
"Q  c #B86748",
"!  c #B36A4E",
"~  c #B96D4F",
"^  c #A26451",
"/  c #AC6550",
"(  c #A36C52",
")  c #AC6B51",
"_  c #B26D51",
"`  c #B96D51",
"'  c #AE7356",
"]  c #AC7558",
"[  c #AD795B",
"{  c #B57355",
"}  c #B97255",
"|  c #B6775A",
" . c #B87759",
".. c #B5795B",
"X. c #B97A5C",
"o. c #BA7F61",
"O. c #C17151",
"+. c #BF805F",
"@. c #B78264",
"#. c #BB8364",
"$. c #B68568",
"%. c #BB8668",
"&. c #BC8A6B",
"*. c #BF906F",
"=. c #BB8E71",
"-. c #BE9273",
";. c #BD9679",
":. c #BE997D",
">. c #C38866",
",. c #C08B6A",
"<. c #C1906F",
"1. c #C19272",
"2. c #C09778",
"3. c #C19B7B",
"4. c #BD9D81",
"5. c #BEA48A",
"6. c #C2A285",
"7. c #C1A489",
"8. c #C3A98E",
"9. c #C2AB92",
/* pixels */
"B B B l l h l h k s s a a a l h h l k g a a i u u u i y y i i u i i i i p i l x B i g k h l l B B B l k s a p p p p p p a s k s ",
"! { {  . .{ { R R ) R R E { ' ' ~ ' I R T R R I R R R R I P R R R R I E ) R { ] ' R R R R ] { ' _ { { ' _ R ) ) ) ) T E R R ! T ",
"I P R R F T R R R _ ' ' ' _ ' R  ...{  .{ { E P {  . .Q @.I { { R ' ~ ' ' { ' { _ _ ' ' { { Q ! U { { { R _ ' { ..{ _ ' { ' ' R ",
"~  .{ } _ R ! ! E _ ! ! W { +.{ I ) { { { { { { { &.;.*.*.9.3.3.3.3.3.3.3.3.3.&.,.<.,.,. .{ { _ R P M Z P Z U U P Z P U R R R ! ",
"!  .{ { _ { { _ ~ { ' ! +.' { { { _ { { { <.3.-.3.3.3.3.3.{ { { { } } { } { +.! } _ } _ 1.&.<.O.*.*.-.*.*.&.%.+.{ { +.' { { { ! ",
"{ W U ) ' { { { { ~ { +.+.' { ~ I R *.-.&.3.1.3.{ {  .{ { { ' .. . ...' +.' ' R U Z U { { R Y R T T Y P U R Z P  .R P I R R R P ",
"X.R { } R [ ! _ +.+.&.2.*.3.3.3.3.3.3.1.3.} {  .{ } +.{  .+.+.&.3.7.5.9.5.+.+.+.+.+.{ X.{ {  ._ _ { { { } { _ { ' ~ ' ~ } ' { ' ",
"~ } -.-.&.<.,.&.+.+.{ ..+.&.+.+.X. .} } { {  . . .} 8.8.8.>.5.3.9.+.+.' +.3.3.:.3.7.3.3.<.` ` ;.<.} X._ { { R { { ] ' +.} { _ ( ",
"..+.+.;.3.1.3.;.;.3.3.3.3.3.3.1.;.7.6.{ 6.7.5.9.9.9.7.1.;.O.) { ' { { E Z ' ^  .N Z U { } [ { _ { _ ' { { { { { { { ~ { { ' { Q ",
"Y _ { { { { { } R @.' ' ' { { ~ ~ { ,.8.9.3.*.-.~  .W _ { { { { { { { {  ._ { { ! ~ { { } { } { _ { { { ! ' ' } ' { _ ' _ { ' R ",
"R R Y Y W R R R R T T R R T ! R T R W Y W R R R T C A Z ) ) R W R P ) R W R R R Y R Y R R W R Y R T D C C ( Y R E R R R R P ! T ",
"k h d h h h h h h h h h h h h h h h h d h h d d f k d d h h d d h h h h d d f h h d d d d d d l h h k h h h h h h h h h k h h h ",
"> 2 6 6 6 2 2 6 6 > 6 6 & - > 6 6 2 2 2 6 > - 2 2 2 > - 4 6 2 2 2 2 6 6 6 & : < 2 2 2 2 6 2 2 - 2 2 , - - 2 2 > - 6 & - 6 6 6 - ",
"! { }  . .{ } X.&.-.&.X.{ _ } } } { } } { } }  .} } { } ` | } } } &.1.-.*.&.} { } } } } } } } } { } } { } } &.-.-.1.&.} { } { R ",
"} R Y R { ! $.@.O.&.%.@.+.$.R ! R Y Y  .....) W { @.{ } ) o...@.+.+.&.%.&.#.@.Y R Y P U { ...._ ! R ! {  .~ #.&.&.>.%.#.U R E T ",
"b Y R R R ) ' { { [ R { P ( E E W ) ~ X. .} @.@.@.@...@.@.o.$.$.+.' { ..+.@.@.#.#.R R Y R Y R P U Y W T #.@.} { .. .{ {  .+.~ Q ",
"{  .@.@.o.o.o.U Z U U J ! ` W N / / U U U Y Y } o.o.$.@.@.@.o.@.@.@.@.Y m U U m U R U -.%.X.o.o.%.#.#._  .{ ` _ _ ) ~ ~ R P ) U ",
"#.o.o.o.U U m m o.o.o.@.o.o.$.$.@.#.@.@.@.@.o.X._ | / @.$.@._ ` U N Z Y o.@.2.2.;.2.2.@.#.@.#.{  .{ { +.@.o.@.@. .U U Y Y  .#. .",
"Z Z m m m ` _ / @.@.@. .) | _ _ _ _ ) / R ) / U Y U U ^ U | $.m N } 2.2.2.2.@.o.%.&.-.o.@.{ #.@.@...T R _ ` o.>.&.} #.o.o.o.#. .",
"b Y / /  ./ / $.@. . .| _ ^ _ _ } }  .| | } } @.} }  .} } ^ Y U U o.2.2.@.@.@.@.o.o.o.@.o.#.&.&.&.+.+.X.} _ U N U ) U U m m m b ",
"@.=.&.@.@.#.o.o. .` { @.@...W W U U { { ` o.@.&.=.-.=.=.&.-.-.-.U U U ` _ } ` -.,.&.>.%.&.,.o.&.+.X.) R / / _ ` ` _ / _ R _ Y U ",
"#.o.;.o. .#.%.%.o.@.@.@. .@.#.&.&.&.%.>.o.o.=.&.>.%.,.>.,.&.&.-.=.o. .} N m N U N U U U U m N U U Z U X.1.=.@.` o.} } X. . .@. .",
"4.4.4.;.:.%.} o.X. .} { Z Z m m Z m / U U / Y / / R / U _ / / _ / / U U Z N m U N U U ^ m m m Z Z Z m m / | $.%.9.%.%.%.%.o.} o.",
"d l S S D D Z U m U U U N U U Y U Z Z Z J H Z C J J Z U Z U U U / W _ / / _ _ / / / W R C l z l k k k k k k d S h l d s s s s p ",
"X # X X o . $ # 8 * e e 9 7 9 9 6 # & & # & & # % & $ % o = O * & q * o o # o * % 5 2 ; : & & # # & $ $ 3 o 4 1 5   # o * * % o ",
"R R R R R ` @.7.:.&.@.@.@.&.-.5.<.=.=.o._ _ W W W / W R W Y ! X.%.4.#. .}  .@.4.5.5.7.5.;.;.;.;.:.3.=.@.&.:.-.{ %.| -.-. .#.&.&.",
"....) { ( U @.@.#...R } ] '  .@.#.@.o.@.@.P W U U U o. .@.{ ' ..%.3...)  .R _ ..=.&.&.&.&.&.&.&.&.%.&. .#.&.&...| | @.&.{ &.;.&.",
"#. . . .| X...........{ {  .X.| { } X.X.{ ` _ _ P U n m Y { ` ~ @.&.:.-.#.}  .;. .|  . ...W Y { _ W ! W W Q U U / R ) R P Y R ..",
"Y R R Y | | @.R W Y Y U P _ R { } } R Y Y ` | |  ._ _ Y c c @.@.{ #.#.#...{ &. .@.@.@.! ~ Q } { }  .U Z Z U / U Y ) / ) {  .! U ",
"@. .| | ..| Y _ P @.| | X.@.W R U U @.| | |  .o.@.o.@.o.@.n n n n b U n n C c C n n n n m N m Z U N /  ._ @.|  . . ..... ... .{ ",
"@...| | |  .| Y  . . . .{ N Y N @.@.X.X.| @._ U U ) R R ) R @.R n n C v R R R R ) { @.@. . . .U U U } {  .....|  . . . ... ...{ ",
"o...| ../ |  . . . . .{ | | o.| W R Y W Y Y P Y _ W _ U m n m m Z Z Z U U R ...._ _ R _ |  . .{ W U A ) _ } } _ ) |  . . ... . .",
"@._ Y .. . .I R Q { R  . ...R R ! #.{ W R N U b b U Z U T U T Y Y ~ _ R  ... .P R ~ +.@.{ W {  .R R U U } ` { @.{ `  . . .} X.{ ",
" .' @...[  ...' ' ' _ } ) _ R R P U N U U ' R T W R W ) Z Y Y R ' { ' @. ...| ..' { R Y W @.@.@.R X.@.@.U U P U U R ! _ _ ~ } ] ",
"I ] R R ' U T ( A ] R T { { { ' _ { _ ) C A Z Z U T U R Z Z Z { { ) { } { { R ) R R ' / Y U U U U U T U U U U Z U L U R { { | W ",
"{ R _ _ ) _ _ ) ) R ) _ ) R R { ) ) ) { ' T ( ) R ( ' _ ..{ U Z Z b b Z m U U U U U Z U A U Z Z Z Z C A C Z A H H C G J Y _ _ U ",
"k k k k k k k k k j k k k k k k k k j S k z z l z z z F F k k k z k k l l k k z ) ) ] { { ) K A S S S S x G D G D D G F D H x j ",
", r 2 5 r 0 r 8 t t 4 + = 4 4 5 8 8 1 = 6 r t 2 8 t 8 0 5 r 8 r 8 t t 1 + - 1 2 0 5 8 1 - 2 t t 2 8 t 6 q 8 q q q 0 1 4 , 3 @ O ",
".. .{ { {  .'  . .{ { .. . . .{ .... .....{ { { { { { { {  .{ { | | {  .| X. .| {  ... . .| { {  .{ { { { { { { | |  .{ |  .{ R ",
"' W ' ..{ ' } o.@.~ _ P C Z Y  .W _ ' W { { [ ....#. . ...' ..} o.o.` ` N n A Y  .R ! ] W ' ..' [ #.#.@.@.....o._ ` ! { ` @..._ ",
"{ Y R [ ..E { _ ..} { ~ ' P W R { { ] I _ { ' W ....{ { X...W { _ | { } ~ ' P W R } @.{ Y _ [ ..W ..X.#...#.&.) / U Y L Y ~ R Y ",
"Z C Y Y I ' +.+.#.#.#.$.P ) P U T ) Y U T Z P ! { R ) Y U U U #.| { } R Y Y R U ) W ] I Z C U P { $.=.&.&.{ Z ) m A U U U Y U C ",
"R C Z C R R R R _ $...{ &.&.&.&. .{ { R R A Z Z H C U U ( ..R U Y Y U R Y { X.( K A C C C C C J C Z C C C A U U &.'  .{ [ _ &. .",
"&.&.%.U M b Z A Y R { W R U R R ] T Y U T ) ! E ) R U C / / ( / / Z U ( U U U ) ) }  ._ { ' &.&.R ) ^ { @.&.' _ ' | m @.+.{ {  .",
"R W _ _ ;.&.&._ _ C m Z ' U R Z Z R @.&.{ { ..&.;.;.:.4.-.-.-.=.4.:.;.) _ _ _ o.o.&.=.=.-.=.=.%.*.&.( R U C n @.#.#.@.#.+.R ! Y ",
"@.@.' @.<...+.{ ] &.! R U U U { R @.) R #.&.&.-.5.;.*.#.&.=.;.4. .&.;.:.;.;.:.:.4.:.4.4.4._ ) / T ) ( #. .$.@.) {  .#.#.@.&.@. .",
"3.*.-.+.;.:.{ Z Y =.=.&.,.&.&.#.#.#.#.&.) ' / ;.;.;.:.;.:.4.4.:.;.-.$.$.} / T U ' / ' / _ _ ;.4.4.&.R { ` #.;.:.=. ._ W { { { R ",
"5.5.5.:.5.5.-.+.#.} ;.:.-.} } #.@._ ..R ;.:.' ) / ) ( / ) / / / U / U ) / / } } o.@.} | ) ;.4.;.:.:.;.-.-.:.;.:.;.;.;.;.;.;.;.&.",
" . .{  .{  .} { { { { | { { { ' { { { { | { { | { { | { { { | { | {  .} | { { | | } { { } { { { | { } | {  .{ | { | | { { | { _ ",
"s g g g g g g g g g g g g g g g g g g g g g g g g g g g g d g g g g g g g g g s g g g g g g g g g g g g g g g g g g g g g g g g ",
"6 t e y i u 8 6 8 5 5 2 2 o   p t y 8 t 9 w i y q w t 9 q i y 8 6 8 4 5 2 2 o   p 8 y 8 t w y i y w t 8 4 4 2 8 8 , - 2 , , 8 2 ",
"R I Y Y Y Y R R Y / R Y Y Z U ) ) U Z Z Z m Z A Y Y Y Y Y Y R Y Y R Y R / Y Y | ;.;._ Y Y W Y R Y Y Y R Y Y Y R Y Y Y / R / Y N ",
"| / ! R W ] H ( ( Y ) U ( P Z / @.| { | U U Y K C H C m C J J C J } } | | R P N Y o.| _ { U ^ U N m J C m Z ] ' ' '  .) ) P R R ",
"{ ) R ' ) / N ] ^ A H Z A Y _ m m m U N J { R ) / ' Y Y R R / U [ G J H Z { } | { } { | { { { { | | { {  .{ P U U U U { { { _ A ",
"Y C Z Z Z C Z Z D V U P _ { W } { { { { { } ) W / _ N N Y / / ] ^ N { ' N U Z { { | | _ { { { ' _ V C m m V V V D H ' U U U Z J ",
"Y { { ) { U U U R b V / U Y U U A  .U Z m R {  .{ { } | { { { / R R _ | | { J Z Z { / U H Z V C n ' | Z Z U A { }  .{ { ' _ { R ",
"{ | { { | ) ) R R T U Z A H C Z V D V C Z C H C C { } } { { {  .{ { { { ) U ( Z L H J } N Z Z T A J H T Y Y {  .{ { { ( R } { W ",
"` ..{ R R {  .U S R  .l c Y U A U Y m Z V C C A Z B B F B m Z R { { |  .) _ R U Z A m V Z C K H n Z ( W {  .' W Z Z ( { { { { ) ",
"_ ] ) ( / ( H G ( T ' Y R P Z U { { | } ) U A H K U ) ' V F G l l A T ) W ] S n c l C C J S h D H / U x l l l S D L R ' W { { R ",
"Y P Y P Y Y P R R U Y N _ { { { U m Z U R _ { { { { Y Y U U ( R S B l S l l l D G S J c B C V W H A C Z A A _ Y Z U Y P Y R Y U ",
"R W _ _ ' / / ] | } X.} .. . .|  . .X.| | { _ | {  .{ { { | W / U R / | W _ W { W Y R -.o.{ } c c B Z U Z Z Z m { W ! } _ _ ) R ",
"Y Y R / / Y Y Y Y _ &.;.;.-.;.;.;.;.4.o.Y / o.X. . . .R }  .o.=.5.&.=.=.;.$./ $.;.-.-.;._ Y R R Y R Y M R W P R R Y R R Y Y Y Y ",
"f f f h h h h h h h c S S c c S S m %.} v m X.,.,.=.,.=.<.=.<.3.$.N S m ` _ C S S S B S h h h h h h f l B f f f f f h h h h h k ",
"& - - - - : - - : - - - - - < - < - - > - : - > 6 < < 6 , < : > i - - - & > : , : > > , < 6 > 6 > > : > > 6 > 6 > > 6 < < > > > "
};
