/* XPM */
static char *xpm1[] = {
/* columns rows colors chars-per-pixel */
"64 64 204 2 ",
"   c #050302",
".  c #0B0503",
"X  c #0D0905",
"o  c #0D0709",
"O  c #0D0809",
"+  c #110604",
"@  c #1B0706",
"#  c #130A05",
"$  c #1C0D05",
"%  c #110609",
"&  c #140B0A",
"*  c #1B0E0A",
"=  c #17120C",
"-  c #1C120C",
";  c #140B11",
":  c #1E0F10",
">  c #1C1312",
",  c #1E1811",
"<  c #200F05",
"1  c #24130B",
"2  c #2C1408",
"3  c #2C1A0F",
"4  c #38180B",
"5  c #230E11",
"6  c #221513",
"7  c #2B1713",
"8  c #241A14",
"9  c #2C1A13",
"0  c #2D171B",
"q  c #241A1B",
"w  c #2C1D1A",
"e  c #321D14",
"r  c #3A1A14",
"t  c #331E19",
"y  c #2D2515",
"u  c #2C231C",
"i  c #342316",
"p  c #3C2214",
"a  c #3E2B17",
"s  c #35221B",
"d  c #3B241B",
"f  c #362A1E",
"g  c #3D2A1E",
"h  c #2D2521",
"j  c #322521",
"k  c #3D2623",
"l  c #352B24",
"z  c #3C2B23",
"x  c #362B2B",
"c  c #3A2D2C",
"v  c #353121",
"b  c #3D3424",
"n  c #3B312C",
"m  c #451D14",
"M  c #432516",
"N  c #4A2C16",
"B  c #43261C",
"V  c #432B1D",
"C  c #4A2D1E",
"Z  c #542F1D",
"A  c #46311E",
"S  c #4D321E",
"D  c #53331E",
"F  c #5D331E",
"G  c #402722",
"H  c #442D22",
"J  c #4A2E23",
"K  c #442F28",
"L  c #4C2F2A",
"P  c #512E22",
"I  c #453223",
"U  c #4B3324",
"Y  c #4B3926",
"T  c #45342B",
"R  c #4C352A",
"E  c #4C3A2B",
"W  c #533424",
"Q  c #5A3524",
"!  c #543926",
"~  c #5B3A25",
"^  c #52352A",
"/  c #5A362B",
"(  c #543B2C",
")  c #5B3C2C",
"_  c #492F31",
"`  c #423432",
"'  c #453831",
"]  c #553631",
"[  c #543C32",
"{  c #5B3E31",
"}  c #633C26",
"|  c #693E26",
" . c #623E2B",
".. c #6A3E2B",
"X. c #623E32",
"o. c #6A3F34",
"O. c #56422D",
"+. c #5C422E",
"@. c #5C482E",
"#. c #564133",
"$. c #5D4233",
"%. c #5D4935",
"&. c #55423B",
"*. c #5C4338",
"=. c #5F4838",
"-. c #654027",
";. c #64422D",
":. c #6A432D",
">. c #65492F",
",. c #6C492E",
"<. c #71452D",
"1. c #72492F",
"2. c #79492D",
"3. c #644434",
"4. c #6A4533",
"5. c #654935",
"6. c #6C4A35",
"7. c #644539",
"8. c #69463A",
"9. c #654A3B",
"0. c #6C4B3A",
"q. c #724633",
"w. c #734B34",
"e. c #794D34",
"r. c #734D3A",
"t. c #794F39",
"y. c #6D5135",
"u. c #6D513B",
"i. c #6F583E",
"p. c #755135",
"a. c #7C5136",
"s. c #74523C",
"d. c #7B533C",
"f. c #765A3F",
"g. c #7D593E",
"h. c #6D4D41",
"j. c #724D41",
"k. c #784E42",
"l. c #6E5141",
"z. c #6F5648",
"x. c #745342",
"c. c #7A5542",
"v. c #755842",
"b. c #7D5A43",
"n. c #745449",
"m. c #795449",
"M. c #765B4B",
"N. c #7D5B49",
"B. c #7F5E51",
"V. c #7E614A",
"C. c #804B34",
"Z. c #805235",
"A. c #885537",
"S. c #83553B",
"D. c #89553C",
"F. c #845A3E",
"G. c #8B5B3D",
"H. c #925B3E",
"J. c #83603E",
"K. c #91603F",
"L. c #815641",
"P. c #835B43",
"I. c #8B5C43",
"U. c #815649",
"Y. c #835C4A",
"T. c #895E4A",
"R. c #925E43",
"E. c #846145",
"W. c #8B6344",
"Q. c #8C6A43",
"!. c #84614B",
"~. c #8B634B",
"^. c #826A4D",
"/. c #8D694A",
"(. c #926245",
"). c #9A6445",
"_. c #926C42",
"`. c #9E6946",
"'. c #936449",
"]. c #9D6348",
"[. c #936A4C",
"{. c #9C6C4B",
"}. c #9C744F",
"|. c #846455",
" X c #896352",
".X c #826957",
"XX c #8E6E53",
"oX c #876A5B",
"OX c #8F6859",
"+X c #926753",
"@X c #936B51",
"#X c #9A6F53",
"$X c #957356",
"%X c #977857",
"&X c #9E7857",
"*X c #9F7A58",
"=X c #A56D4D",
"-X c #A5744F",
";X c #A37452",
":X c #AC7852",
">X c #A07358",
",X c #A47C5B",
"<X c #A97F5A",
"1X c #B07353",
/* pixels */
"  & > > , ; = o O % # .   . . . o # # O = O . # . . O = - = & o . . . X X . . .   . + . . . . .       . + . + # & 6 > % & o .   ",
". [ *.7.h.[ [ h.9.) U H U ! C M S W U C ) ! U W ! $.$.5.$.3.%.5.:.r.0.r.3.! D r p d B Z M V C D C C S C J U W [ h.*.] E U J K . ",
"# 0.9.{ $.+.^ 5.3.^ / V C U I U Z B B ~ ) >.e.-.3.$.$.7.6.6.s.6.} -.e.w.6.W } U 7.+.) ) ~ | Q ~ Q ..:.$.h.n.*.*.9.*.7.7.$.] )   ",
"O m.c.x.4.:.;.r. .3.1.4.3.+.Q 4.:./ ~ C W ;.w.8.y.v.x.[ 0.$.4.9.2.| ,.w.4.! T , ) j.7.5.:.:.4.1.w.w.( ! ] { 8.{ X.3.w.4.{ { 3.  ",
"X 8.3.8.3.( / $.4.4.w.6.w.6.q.6.3./ ;.0.;.~ 4.8.9.+.7.3.3.r.c.S.L.S.P.P.F.b.s.{ $.5.8.6.:.e.G.Z.4.q.q.w.q.X.r.9.{ 0.9.*.^ ) 8.& ",
"7 { 7.y.;.3.0.5.r.4.{ E X.$.+.R 7.r.x.t.s.s.d.q.5.s.x.x.t.4.p.g.c.T.0.x.c.N.b.l.4.8.~ / | <./ )  .,.S.G.R.D.G.S.v.0.7.^ L ^ /   ",
"&./.I.P.N.v.v.4./ ) ;.3.! 3.5.+.+.t.w.j.N.I.P.f.w.s.6.X.6.w.e.L.W.@X7.f.b.j.N.c.c.r.6.;.,.w.{ 4.4.a.t.d.d.Z.d.S.t.6.9.y.r.r.s.  ",
"u { / 7.+.) / E ^ )  .3.;./ R D  .} d.'.(.G.t.w.4.:.6.r.4.3.;.( A z 6 :.w.F.T.L.w.4.3.>.O.R f I W ^ #.+.3./ V H ^ E 4.6.6.4.7.& ",
"2 <.t.d.q.t.G.t.r.t.a.w.t./ w s O.4.F.P.d.t.a.G.T.(.I.L.F.P.d.2.d.w.4.a.r.L.L.r.4.3.) E +.4.9.6.0.s.a.r.6.w.t.t.S.I.].H.H.H.q.2 ",
"2 q.Z.w.H ..:.q.;.:.:.>.x.5.X.;./ 3.0.r.j.m.x.t.I.Z.d.r.r.S.6.s.g.a.:.;.%.R J { y.8.^ 5.F.s.w.b.G.I.Z.D.d.r.T./.T.e.e.q.:.C.q.# ",
"* 4.w.6.i C Q ....:.:.4.t.d.s.6.( ;.5.V.~.Y.t.x.T.I.d.6.6.;.>.%.5.;.T Y ! ^  .6.r.8.7.X.8.6.;.0.c.b.b.Y.s.6.3.8.s.L.4.@.;. .|   ",
"m } Q  .z V ..q.4.:.:.<.:.} :.3.w.@.,.a.x.N.N.U.3.t.P.N.a.w.q.:.:.~ ) 5.w.s.x.3.#.7.3.6.c.t.r.r.t.d.D.q. ...{  . .Q ( ~ ~ R U   ",
"2 D Q / W | } }  ...:.:. .;.;.)  .:./ / W ) s.x.w.w.w.S.r.;.4.) ) 4.;.! U J L ! 9.0.c.c.h.u.s.p.r.0.4.p r t e B ! g C C J )  .. ",
"1 / W S Z :.} Q Q  .4...5.4.;. .S W U D W / ;.) ~ :.6.+.[ ( ;.7.5.s.s.>.5.4.;.;./ ;.0.5.+.7.8.;.=.] { m M C B J S !  .C B V C . ",
"& U ^ ) J W W +./ W W U d e d d d a V S J s a B g J C ! E V V b V B S ( ! W W U W R U W U W U U g 7 U / W W / W C V B W U M d   ",
"  .                         . .     . . + # .                         . .     . X       # # # . . . . . . . # + . . . .         ",
"1 $ - 8 8 t h j s j j h j u h j n n i 3 1 * < < 1 8 w 8 u y u h x n i e 7 8 u j l j w q j ` l w s j l l x j z c w > , * & * * 1 ",
"{ ) $.0.v.).R.R.'.[.%X/.0.d.s.5.l.[.^.r. .C ~ w.4.g.w.3.( U U U E ( 3.$.~ 3.+.%.7.*.9.{ 9.x.7.7.8.M.! h.N.B.|.B.n.n.N.M.7.7.;.~ ",
"7.! ;.) ( { 9.8.3.5.r.5.! 5.y.a.p.0.b.s.t.6.4.t.I.L.d.s.;.w.;.+.;.) u.6.p.6.+.s.$.{ 0.X.] / ^ L K z 6 7.m.m.x.m.h.h.h.7.7.3.u.9.",
"0.+.:.:.;.Q ^ Q R U / w.b.q.:.,.:.f.b.c.[.[.r./ ) 5.w.a.b.>.F +.) $.5.0.8.4.+.d.s.4.6.6.3.8.5.{ 3.X.( 7.8.j.r.r.0.r.r.4.0.8.$.3.",
"$.) x.t.4.4.q.K ^ } Z / f.6.6.a.w.a.F.d.'.@X/.S.L.t.8.h.u.$.E #.;.4.v.b.b. .t.-.Q ) ;.) ) ;./ ;.0.r.w.d.!.P.d.d.q.s.P.g.i.6.( ( ",
"{ 0.x.r.6.x. XV W 2.<.w.d.s.F.L.(.'.G.=X1X=X=XN.3.{ a.i.p.s.0.( ;.p.d.;Xb.r.8.:.;.) ) 5.3.*.6.) $.{ 0.G.'.'.'.S.S.u.l.N.N.P.v.9.",
"N.v.w.r.Y.Y.OXd.:. .8.a.F.`.L.s.s.r.d.W.s.s.b.g.>.;.9.s.Y.!.v.s.0.$.8.0.3.g.0.6.6.8.7.x.r.5.7.7.T ] e.S.F.A.S.a.s.w.d.~.P.Y.|.E.",
"r. .r.8.*.{ ( U I f i U / 6.X.>.e.T.w.A 6.8.V s Y U ) 7.w.8.9.r.N.u.v.r.0.6.0.0.s.p.d.h.9.$.4.$._ / 3.) +.9.3.%.0.s.s.P.p.) 3.r.",
" ./ +.{ / K z ) 3.3.X.) S B V ~  .:.y O / / { d >.r.4.7.x.c.j.0.v.x.P.s.s.t.x.c.r.0.6.;.4.6.q.3./ ~ ;.R.~.R.'.'.'.W.S.s.5.{ ) ~ ",
"<.4.r.0. .} / 1.{ :.;.8.:.c.S.w.5.-.w T j.s.p.1.e.t.3.j.j.c.N.c.U.0.t.0.;.3.4.3.4.6.3.3.q.6.6.4.3.4.:.w.4.;. .8.8.{ 3.) ^ / <.<.",
"M W 3. .J I H t K 4.w. .4.8.7.5.J 4.g T +.+.+.8.*.T I r.t.x.c.c.N.N.6.t.6.8.r.q.6.w.s.r.r.8.w.4. .) / ~ ~ /  ./ ;.~ 3.( ) R M p ",
"Q W 6.! W R T J P L ) J G G g z g W U ) 8.{ 7.s.A ] X.)  .5.5.7.) 4.0.6.4...6.;./ W W J L L U ^ U J I d i V D C Q F ) +.) W C C ",
"..:.3.) ) ) ! ) / ^ { 5.7.3.) ) { 3.+.6.u.5.$.6.r.c.r.r.0.9.5.8.h.0.$.7.0.c.L.L.s.4.4.4.4.;.) ) ^ Q W C N Z Z Q Q D F  .;. .~ ~ ",
"x.x.r.3.:./ D ~ ) ) x.Y.x.N.6.>.:.;.) 4.6.{ J ( 6.) { 5.4.6.u.v.N.x.3.*.7.x.x.r.3.W 4.5.$.! Q J B d 5 + + 1 d W ! ! +.+.( { 7.0.",
"( ( R R U D U U H H U ( ! U W S d V S I U A I ^ ( R T E Y O.%.( T E I E $.E U ( E V S V H I S V s > 9 t s k H d d s s w 9 C U I ",
". . .                 X .             . o .   . . o . .     X # O X . , 8 , = > & X &   .   . . . .   . . . * * *     .         ",
". , > 6 9 8 3 7 w 9 9 9 9 9 7 7 7 0 7 9 9 7 3 7 7 8 7 7 9 9 9 7 9 7 7 7 w 9 g 7 s s t s k G k k G d d k g d k k j d e e t e t   ",
"* U L L T U I J g I U U W U J J U E E E R R R L U U A U W U J H J ^ ! R Y ^ ^ U H V K U U L H V K J / ( +.^ ^ ^ *.{ $.R I H ^ . ",
": { ^ X.0.w. .~ ~ $.)  . ./ ~ / { ^ ^ [ E ) 7.3.! T ^ ^ U I H W ( ^ $.7.9.r.{ ) 6.4.6.w.+.V ) { 3.7.*.j.h.7.{ R I U ( U V J /   ",
". I U 7.7.5.8.:.:.>.) C D ! W S [ ^ R X.5.7.l.r.@.W H l V B Q O.( $.$.9.0.c.6.0.b.r.x.r.6.8.N.P.P.5.s.0.8.3.5.[ E U T P S ! U # ",
"8 6.) 4.x. .} | :.a.( w.:.} ) :.4.t.0.0.6.7.6.8.v.5.@.3.O.+.;.Q O.{ +.6.Z.8.3.3.t.d.t.6.4.6.6.a.L.Y.E.T.6.| t.P. Xc.T.U.P./.XX7 ",
"^ 8.~ } ,.2.q.:.W Q $.3.,.s.s.r.4.4.w.4.:.W  .) ) ) ! I I A C S 9.g.b.I.g.w.4.:.+.5.:.4 d ;.b.Y.W.~.'.F.$.s d ) 5.S.P.t.4.~ b.& ",
"i ~ ~ } } ..<.:...x.f.x.%X&X<X-X!.x.I.Z.} Y ;.:.:.<.6.s.!.'.Z.w.U :.s.b.u.5.3.U U k 6.r a O.4.p.r.w.5.( { / :...o.q.'.c.3.Q 0.  ",
"s Y :.w.<.:.} / +.u.0.3.e.w.b.!.L.q.t.t. .;.:.:.2.e.6.s.A.a.:.O.:.p.w.4.w.;.5.@.E t e.w.a.w.s.s.5.c.c.v.6.X.4. ...4.o.w.4.%.$.  ",
"3 J W :.4.:.d.v.4.w.w.;.~ t.1. .W V - , h 9 V ! U Q  .X.4./ ^ Q ^ ( 5.t.5.4.9.6.0.U 8.6.s.:.:.;./ +.h.0.b.r.8.u.j.x.r.s.b.f.u.  ",
"' 5.Z.e.:.q.L.I.R.H.A.S.;.e./ Q ..4.*.l j ^ d.b.r...J B :.+.} +.*./ 5.d.r.;.6.4.) ) w.v.P.s.6.>.>.r.S.s.t.b.g.L./.(.R.I.P.F.E.- ",
"T T c.I.A.D.S.L.t.G.D.,.6.d.w.q.) C > * 8.3.;.$.J W Z Z | 1.E Y ( L 3.S.d.L.P.q.( s.8.^ A l b Y I V g H z P W U P L J J / ~ :.. ",
"w l.j.x.s.v.P.p.6.G.;.W U ! ^ U ) l H 8.t.6.q.;.Q ^ V d t e 0 g D ~ W +.:.6.0.6.L.S.b.c.7.%.0.6.w.;.4.) ) ! K ^ { / } ..<.-.q.. ",
"w z.9.5.9.u.+.w Y %.$.! ! 5.6.) 4.5.4.8.r.d.s.,.) w.6.4.w.>.+./ ,.;.} :.<.w.w.S.r.w.0.s.6.:.8.-.6.4.,.~ ~ ) ! *.4.5.u.9.F ~ -.. ",
"x M.V.M.0.;.f.l.0.6.! Q R ( { C J Y ( W / ;.:.:. .4.:. .) / W ) $.U Q 7.5.4.<.t.v.x.0.x.N.M.l.l.M.x.5.3.0.x.0.l.v.l.u.f.f.b.^.& ",
"q 9.*.Y %.3.%.9.9.#.E ( ( [ R T E U ^ E ) ) $.5.$.! ) I S H I I M C +.%.:.) ) U H z V ^ #.[ R ( R U W %.=.7.) V R [ [ $.$.E (   ",
"; 8 6 , - - 1 d I U z g g s d I I I g J z g g z f I A A 9 , 8 1 8 i g V V g i i e e 8 9 w y w 6 - , 8 6 = = & + = = 6 8 = = -   ",
"X & X # # .   . & X $ $ X . X + # > w 6 7 5 * = : X . . . . # . + . # . < # @ + + * * = & $ # $ + + . X + # . # # . & # & O X O ",
"E H I J ! [ #.O.=.! S S ( $.E a Y *.9.h.9.$.^ ] [ { W I d t d W ( ) Q :... .~ Q ) U Q ) ;.) ) ) 7.9.5.+.4.:.) / W [ ( +.E U R R ",
";.,.6.y.9.V.W.;.w.P.:.( 5.a.3.r.p.6.$.;.7.3.( E [ U ^ $.+.L { 0.s.! 4.w.s.q.:.:.;.! ( ;.6.6.r.r.g.x.s.s.x.c.g { 4.+.w.Q.(.3.U 4.",
"H.W.'.E.F.F.g.p.D.d.0.p.u.s.p.W._._.g.g.F.g.d.s.r.8.7.7.7.r.b.S.F.G.! ) 9.:.w.3.{ K I 7.(.R.d.I.].s.L.W.I.[.T z 5.p.`.'.a.q.@.A.",
"s.0.8.X.7.8.6.6.6.e.s.6.0.0.8.0.6.s.w.t.F.I.].R.(.'.g.P.v.3.) a.A.W.d :.u.[ E E T k ( R Y.T.T.!.~.~.~.~.P.d.s E Y +.0.x.5.#.3.s.",
"w.w.w.5.0.T.S.0.s.d.I.P.L.b.0.8.X.V ) 0.k.Y.Y.!.#X~.~.Y.8.z l I 7 g a 6.#.@.b.f.s.0.3.4.[.+X@XR.P.r.T.m.c.w.a.G.S.8.2.L.P.F.>.7.",
"w.4.8.{ j.U.a.6.0.q.w.a.Z.e.D.G.R.K ,.m.g.8.+.Q P $.7.6.5.O.@.5.;.V U ! *.%.5.4.u.L.6.d.N.!.~.x.c.u.f.r.r.4.{ 3.w.G.s.Y.v.6.:.5.",
"*.X.8.6.s.P.N.s.b.F.y.5.5.=.( z s = 3.S.L.T.P.g.U.F.! ( ~ I A J i f K T #.=.9.8.$.{ I V 7.$X[. X Xg.N.8.{ { 3.7.8.s.r.0.3.[ ) $.",
"j.N.Y.b.E.(.'.[.}.&X>X*X$X XF.G.f.7.G.A.W.I.E.(.W.'.P.E.p.6...~ ;.) 6.r.L.E.u.!.f.Z.t.S.{ y.5.8.$.@.w.5.6.9.6.u.5.3.h.0.r.s.8.0.",
"X.k.u.x.s.{.G.S.s.=X`.{.).I.y.s.w.y.w.I.s.,.;.! O.s.s.f.a.e. .y.d.b.g.~.L.(. XXX[.'.K.).w.0.S.6.w.g.J.4.i.y.;.) ( [ { ) / / ) / ",
"7.3.x.U.U.j.f.P.s.I.r.8.0.6.%.9.5.v.[.#X,X:X-X;X'.v.6.b.4.%.5.0.0.r.r.s.g.E.W.e.3./ -.a.p.U ! ) :.,.S.F.F.F.g.s.s.f.0.c.Y.Y.h.7.",
"P.~.W.Q.[.'.W./.g.~.~.s.p.r.s.5.6.s.g.b.F.q.d.s.P.P.F.W.c.W / 5.6.s.c.N.c.c.S.t.d.s.w.,.+.>.8...,.:.0.8.7.X.0.u.s.0.5.Y.N.b.v.s.",
"! O.O.) ) 3.5.$./ F >.( ~ $.9.5.0.8.5.s.) F 4.d.b.s.P.Y.W.Y s.x.b.s.x.r.s.s.L.Y.T.g.Q K I  .3.} / 7.5.6.w.0.s.3.0.s.b $.8.%.*.3.",
"6.) D S D U ) :.:.>.7.@.9.v.v.M.|.oX.XN.6.~ Y R ( ( E v l ; @.w.r.,.,.:.X.$.;.8.9.0.$.R E ~ Q Z N D ~ } ;.Q Q  .! ^ T *.5.i.s.6.",
"! U B V S Y $.U U ! E #.#.#.U ! ( ( ^ W S D C P U Q W D U V W ) 6.v.$.U U U U Y R U U I V U U C W +.u.$.V r i U R U ! E ( U U V ",
".   .                 . X .   O O . . . + X + . . . + . . . . # - &               .   X     . X X O & O . . .   . . . . X # .   "
};
