/* XPM */
static char *xpm2[] = {
/* columns rows colors chars-per-pixel */
"64 64 47 1 ",
"  c #0F0C0A",
". c #120E0C",
"X c #180F0E",
"o c #16110E",
"O c #19130F",
"+ c #171310",
"@ c #1A1511",
"# c #1E1913",
"$ c #1E1B18",
"% c #231C15",
"& c #281F17",
"* c #251E18",
"= c #281E19",
"- c #272017",
"; c #292117",
": c #262119",
"> c #2C241A",
", c #2F281D",
"< c #31261C",
"1 c #32291E",
"2 c #392D1E",
"3 c #37301F",
"4 c #3B301F",
"5 c #312721",
"6 c #362C21",
"7 c #392E22",
"8 c #373125",
"9 c #3C3224",
"0 c #3F3428",
"q c #423426",
"w c #483727",
"e c #443927",
"r c #433629",
"t c #493729",
"y c #45382B",
"u c #4B3B2B",
"i c #503F2D",
"p c #4D3F30",
"a c #503F30",
"s c #4E402E",
"d c #53422E",
"f c #4E4031",
"g c #534331",
"h c #584731",
"j c #5A4935",
"k c #5B4A38",
"l c #614E3A",
/* pixels */
"::,,1>:11>5,,11551,,1765O&799115661111111,11=:=&=&;;;;:%%&&;&&&#",
"8qtqqyquuaayddidgyguiuwqO6kuiqy9uhdddiiuyuqyitqqtuquqquwe4qq>12>",
"99te9yutuuututqgeeuutuqq#1duuuu19rquutqq777ryytqqqq982qq9qq2qq2>",
"q9667ryqutut9y59tuiiue7q#1duutseq5qutuu77qtwwt714qq2<q4214qq4<<>",
"1651117wy28t281quaayy517O,ittue9<quutqqtwqqwqw2q2q4<,><1124q2>&%",
"1071111<69q9517eiy991><8+,guuuuut71tsuttqqqqyqqqqq9034<,14q241&%",
"::,><11><29066y9t7651<17@:yqr0u059<q511qq<5qqq7791,;,1>;2q21<&&O",
":1911151775q7yq,71=<15y0@=1166991qq91:1829yq97,;<<<<;<,8<<>&>;&#",
",,6798y9761qyrqqq216,9r0#:t0900wq90r860qq9r6511<,449917q<1<&<;&%",
"-;<16611,>117,:1,,11,767#>uyqq9q90rq968691512<1,;>1111111<&,&&&%",
"-<511>>,,,68661,,,>>:,<;#:707y75116,6><<,,1299,>1,,<1>,&&;&&&><%",
"19y61y91,6754yuw8298q7yt1:guuuu77yguy625799227,294999q9091<<<&&&",
"@@##o#$##O####%##@##%##@$#%%%=%%%%*&#%&%O#%%########@#@@OOo#OO.o",
"11--%**%#%%%%%#-:####@%$&*&$##%%#%#@#$%@#O@:OOO####@%%@%OOo.XXo.",
"ee096,1<17586,886,,61:,>6q51><,,,566111,>19d@1094etuqqqqqqr1&&>1",
"010f97771161,,18ut7<<<=5y861,,,5<605,11519uuO79qqqqq7qqqq426221<",
">2q510016667551197yqr055667979r65r9rtdwttq79O<150e4qqq7qqq71q2:%",
",62577607775971577pyrr0q787780q6656707921978O9qqqqq47q27<92q43<%",
"ytiuy65709rqyy9yy6ry0808r0978yrrrqqq99qutiuto99qqqq72721<222<21<",
"ttywty07teyq977q8757777976q76yty0r<,,1uwqq17O970qqqqqq943977422<",
"yqrq579ty755755558567yqyyyqyqqq>,><>:1uuq7::orerqq9q7224222242<<",
"tty9177qq9ttuy3yr7510yyput995<;,,><>:<quqq91.qr9qq9qqq7922q422<<",
"q7551157ertttiyr91517qtyy7071111,,>>;<60rrqq.119129<1222272<<4<<",
">:5>11<<6889998,1<:,15511181,,>>;>>>;>47r799o1161<<>&&&72<;&2<<;",
"115q911177215q0761,,,87,7977q1><<<15117y97qy.522712<;;231<=:<2-&",
"%@$%#@@@O@@@+++X+O++++.+o.+++X+XooXoX.O.++Oo....o...oooOO%%%%###",
"5yqtesuuyuud%5>19q76515551171qy54ee07>118q0wrq907151::><,,77921,",
"0rtquuuuydui%%17y0qqrtuusdyyy0uyudkkuwwyrqqqq99q96q71<><1111,;<,",
"00q7rr0yyur8%%77079r7000er9quqyw9r9qyqqqrr81721111:>;->;;;>>&>;&",
"<990yy76q907%:yyq87qer0q97,8rq77err0r86719971<<,52>&;;;;>;&<<<1%",
"212y7qt9586:%%<9q7,>r07y029r071,y08r9250971658qr021,;;>>;;;>&<1&",
"022eq756q771==67yy09qqyy796qqyy0yrtt71789q7127111<9;;&;%;>&&>>1>",
"r9668906,:7y=*0q0r9q08,5759w097766:56,196>=57>151>&&>;&&&&%;--><",
"6666,>->:,79=%7ryrqq77qr770qyyqq6600577578761515q511>;,&;;,<<<<>",
"q0qre07617q0*%qyr7599q079wqyy510087657117rqrq12q99,&::;,>16<41,<",
"ryyreq0y975p=%q0rqqqwyy0qytyyyqyryr6789yrry0q17702=&->>;>29621,<",
"efyq9rtury9t:*puyptuyytytauuuduitttywr76y0wqrqqqq921,;>61390482<",
"=::;%*:>::=>$#>:>:>>,=:>=:::;:::$***####%%%%*%%#%%#%##%%%%###-##",
"oooo+#+o++++Oo+O#+++O+++++#++++#$+$$$$$++@+++++++oooo. o o .....",
"gqdhhhdhhigdyghjuhdjkkkkklktatghg*qwuytiduggaahysuuu429q922292;7",
"utuuiqqtegyuhggg9q7pyugfuy81giuup%700yqqqqquqqtqytq2qy299211249<",
"uuquui9qtfy7yuuigyqygdugr8qyhuitp$pq6yuuiq2q7qqqwqtqqq1<12762<22",
"yt0926669eqrqtuiuuutuuugtq16tuu7w$0<>1qyuut2><1q219q91>;,,<&&&2<",
"ut8780qrusuuuuiituudiidg899ydii77#w7,,29qtwq2=<7722<<,><17,&>24<",
"quq<6q8169q9ruutq5yp75qy>8duuyt75#701,1522q7q1171<==:,>&&>;%&&&<",
"<99y6511116,1eqqqq901:19yyqrr7715+77w>:,><7,9q7q1111<,><2;%&<&&&",
"171te09ttq215000qyrr0767799q07781Xryr75,>1qqq72771571,772>&&&&&%",
"17qq999006657<q77qwr007qq7qy9ry71@97771,,>>1>171<<><1,,>&&&&<&&&",
"111<6681166170y86,611166118q0yq1=#<:,>::=11>,,,91<>>==111=%>1>&%",
"17qyeteqrey96qyyq9r099sfgfuuipg99@qrq891775qq9797<>>77<1q7><<>;&",
"@%=&::::::*%#&:>:##,>>:,,:,>,:,::.:*%-*%%$&:&:&#%O#+%%X@%$@$#OOO",
"%@OOOo#####o#@@@##+oOo++++++oO+O++o+OOo#OO@O.OOO@@@+@OXX.+.. O. ",
"<<11,1771511,1197,1<15>568711775717176qytuq1,,quttwwtwww422-#w4%",
",,65<>77,>>>>,17y9*>:<5wuq1,,67771757tu,8ut96299wqqqqqqq422%Oq21",
"wytqty7y5177787671<599rr00111555577q77q0<<17q92uwt99qq2qq22#Oq1;",
"6798097115qr0667599yqrrr6611787159895117112wqqqq58292q2qq12%O<<;",
"yye9q94qrq9yq660r8909yyr0p0qyyqtqr6,9eyuyq9q79qq<21q22q2449&O9q1",
"yyeq1,,,69esq5y7777798789700qyyytq8yretyrrtwrrqqq9qqqqqq942OO2,<",
"9qe9;;<,><,<0quyyyryq76678766579qey669qqqqqw0qq47044q2q294w%O&#%",
"9tq3>,<<,>,>7080yuyty7570y70yw55ee9811qqrrrq9qqqr99qqqq4q2q%O&>>",
"re86><>;>>>>,670uuuuq9567rtuuy7176795156rq9qq19497771142122%X12<",
"r97,;><<;;>,560615681<,<568rqq651,11111111qqy111q01>;;<>;11#o2<>",
"7qr1<11121<17q70975r1,<17577529676157771<12q77<<279,<<1<<21#Oq2;",
"%###@@%O@O#@%@+++OOOOoXOO+++X+..o.+..O........... ..            "
};
