/* XPM */
static char *xpm3[] = {
/* columns rows colors chars-per-pixel */
"64 64 90 1 ",
"  c #1B0D06",
". c #1B0D08",
"X c #1E100B",
"o c #221107",
"O c #24140D",
"+ c #2A160D",
"@ c #26190D",
"# c #2E1A0E",
"$ c #311C0F",
"% c #2A1610",
"& c #241810",
"* c #2D1D12",
"= c #331D10",
"- c #381F13",
"; c #2D2015",
": c #2E2218",
"> c #352213",
", c #3A2415",
"< c #352418",
"1 c #3B2718",
"2 c #422616",
"3 c #422816",
"4 c #442A18",
"5 c #4A2C19",
"6 c #4F301B",
"7 c #52331D",
"8 c #58361E",
"9 c #5B3A1F",
"0 c #603B1F",
"q c #5E3C22",
"w c #613E23",
"e c #644226",
"r c #6A4326",
"t c #6E4926",
"y c #654628",
"u c #6D462A",
"i c #6B492A",
"p c #704526",
"a c #724A26",
"s c #744C2A",
"d c #794E2B",
"f c #76512B",
"g c #7D532C",
"h c #7E592F",
"j c #7F5630",
"k c #82562E",
"l c #88572D",
"z c #845A2E",
"x c #895C2E",
"c c #905F2D",
"v c #835631",
"b c #855A31",
"n c #895D32",
"m c #905E32",
"M c #8C602D",
"N c #91652E",
"B c #92682F",
"V c #876031",
"C c #8D6233",
"Z c #8E6832",
"A c #8F663A",
"S c #8F6939",
"D c #916434",
"F c #986631",
"G c #946A35",
"H c #986C36",
"J c #926539",
"K c #946A39",
"L c #996E3A",
"P c #9B7237",
"I c #9C733C",
"U c #9E793D",
"Y c #A26F3B",
"T c #A3763B",
"R c #A57A3D",
"E c #AC7E3C",
"W c #996F40",
"Q c #9D7541",
"! c #9E7842",
"~ c #A27641",
"^ c #A47C43",
"/ c #AD7F40",
"( c #A57C49",
") c #AD823E",
"_ c #B1853E",
"` c #A68246",
"' c #AB8346",
"] c #A68248",
"[ c #AC844B",
"{ c #B28540",
/* pixels */
"aaattttrw09888trttr8885555242555555765rtd79wrptasatrw777778770w0",
"HLLHHLGDDDDDDHBNHNCDMDDnDDDNCNDDDxMDDDLNNDNDDBHGNHFCDDNCZDDDDCDM",
"mCCDfMDDNFBGHBGNHHBHHHGDHHGFHNDHNNFBHHGGNHGNHHHDnGHHNFBDFGGNHGND",
"HHHHFDDGDDHGGHHHDCHHHHHGHTRRT__))EEEEEETTTRTHHHGDCnbxnnnCnnxDDDB",
"HHGHHHHHHHHHPLHHHHHHHTEE)E)EEHHHHHHHHHPHHHHHRRTYRRRETTTTHHHGFHHD",
"GDnDGGGHHHHLPLHGDDRRTEEEHHHHHHGHHPHHHHGDnxnHGJmDCDJmnDvnPJDZDGKM",
"TDHHDGDGHTTETEE/EEEEEHHHHHHPLPIH)__{_PIIIIHHHHHHHHGHHHHHKGGHGHGG",
"GHETTETTTLHLITTTLHHHHHLLPY___E_{_ITFH_E)E)EEEYYTTLLHHHnHGHHHHHGx",
"IYTRREEEEEE'E)ERR{EL/{{{{{{TRTKKGHHDnDnHnknKHKGHGHGGHHHHHHHHHHHD",
"DGHHHHHHHHGGGHLHLHR__EERHHGGHHGHHHLHHLLGHHHHHHLHHGHKDKGKKHHGJGHD",
"DDDDDDJGDCDDDGDDDGDDDDDFCkznCDDDDCCDFDGDCDDDDDDDDxgkkVDDDDDZDDDx",
"rruwrrwrrrrrwrrwwrrrwprwrrrrrrrerrrrwuwrrrrrupwwrrrrrrrrrrrrrrrw",
"$===$$$==-==$$--=+====$=$$$$*===$=-==#$-=$======$==*======+$-$=$",
"HLLLLLLT~(~ILLLLLLLLLLLLLLLLLLLLL~(((~WKLLLLLLLLLLLLLL~(((~LLLLG",
"LDmDLDII~~~IQLmJDDCHHLKDGIDHKILII~~~~~IJDDmnLHLGDDHGPL~~~~~TJDDx",
"nnDDZZZKKKDGmDmFGGGILLIIIIHIIILIIHHPIILQICJDnDDDDnDDIIHHLLHHHLLF",
"LLIIIQWnbnnnWKJCDJbnCnJLQILIIIIIQLICnnnknDDRTIIIIITKLGLKGDHLDDDx",
"LTQ~nnbnQIILIQLIPIIIIIILKLJIQLKKnnnDLIR^R^RIIIILLLLILIIILnCnnHIP",
"nvvvvLLJIQILJIGLKKAAJDACAnCnVKInnLER^EIIT~~IIGIIILnDLLLTTL~QL~IL",
"vJJJWJJLILLLKnKGLLLWKLLQLLLLLAAnnLRRIIIQQTIIQI~TTITTLJmnnDnnnbnk",
"I^QIIII~KLGIIHDGzxGKHQIT^^T^R^~~CCnKLLL~T~RR~RUTLQAJJJJLLKKKJLJx",
"IURIL~~~QLIILLT~R^T~PIT~~~^TTT^^~IWLnnvnnnnnnnnnnnnI~~ILLYLLLLIL",
"^`^^(!LQQWWWbvnnbnWbnACJAAAAKJJKJJAnbnbnnnmmvvknbvvbKLQ([(~~~WWW",
"wrssfdvnbnnnnnnmnvbbbhbbbbbnnVnnJJLJKJJKJJJAgiurreeereesruqwwq97",
"O+XXO.++=+2,,,22-+%#+##++#%+O+O%#=%OO+O%#>$==#$+++%%@O#*=.+O@@+%",
"DDDDDLU'^UIIPU^'^^^ILGDFDJGDGDLI~^UPLLU'''''^~^^^^^IT`RLULRRHITT",
"LLDGMzPIIPNHNBHITIIIInDnlnLLPHGLT^PMHNDHUIUTTUUUIUTPUIULLLITHT`P",
"PLLPPLLLHLLLHLPHHLLLHLKGnnknDHKLUTRUIGPRLLLLPDDLHDFDDHnnCDDDDnZP",
"DZZZLPPJGCnCCLJLLLDCDKLLLLKCddLPLILTLLTLLILHHHLLLLbnbbCnAZALLLKx",
"IPLLLLZGDPILLLDDxnILLLLPILIPLvvddvndggggdkkdvnvvnnCLKPLILLLLLHLH",
"LLILLLLKLLLLKnDnLPLPLPJnnDDDDDPCkkgvDCCDDGILLLLCCnHGHPHLLLLLPLLH",
"LLLLCLLLLLLLLLPLDDDJDDCDHDGnvkvkkkbnCZLLLGGGLLLGDnzGKLLGKLLLLLPH",
"LKDPLLMDHGDPLPDDFILDJnbzknbbVnVDDHGGLLLDDGPPGLLLCCnnLLHPKLPLLLLG",
"HGIHGPLHDGKGKGDVCnxznDDxGDDDzDDDGGGILGLHKGNDGLIPDIIPCnnnCDKDLHLG",
"MZNMKVVVzZNxGGHGGGGGkkkknxxZzbkGGHHHGHDDDDZZDnxxnbnnbnxznxnZKLLD",
"GGGDGKDKKGGKDGDKDGGKKCCZCZKGHLbxvkvkbnVnnxbbvnbbVbgbhbhzghgbDGDM",
"eeeeeeeeeeeeeeeeeeeseyiiiiyffeeeeeriieriCKGKGZzzfssfsfffffjfghiq",
"=<*>>,<<><*@***>>>**><<>>>><><<<<<<=@%;*>>>#%><,;>>><>><<:****&&",
"LPLLLLGHLLPLLLPLLLLLPLLLKLLLPLLKLLHPLLPLLLLLPLPLLGLLLLLLILPLLLLZ",
"BDBHBBLIIHGnkkDLGBBDBHBBLUHHFBHLIPHDmkzDLGGNGGHBBIIIPHPPGLGHHPHK",
"GMNGBNHLHHHHGMNDGHNcDGNNLLHHHHGGKLHHHKnDDGPGMGBBDLIUHIUZVnCxCHDx",
"zkCCNGHIIITIxDxMCZDzMxxDLDDCCCnILLLGDCDDDDGczkVxFIUUTBzAnbVnnCCk",
"NkzkNDDNGPPHIIUTLLLDDbnbjgVnxLZnCnnDnHInzzkvgkgbkbjjvbnnILLHHGPH",
"IUICxkxnVDKDDCDDNxCxCDGDZDCgAAJAAbCCCCnKKLLKGKUUDDCLPIZKGHbPIHHP",
"NDBD^~!LKkvbGnZnbAIULLL^^^]]^^^^]^^KKLKIPI^^~!~!TUVZngvPITIIIDLD",
"IIGURLPKGIGDnnnGCIDZIUU^]!^QU!^]L!!]^^^(]^](^SAZVKAILIPJLLIIITIH",
"'T~Q^(LnnU~U~TTIIIPUKSJ^^^^^^^^^^^ILLCnbSSSJKS^^]~DLLIU`^LKKLLLD",
"]']`]]^TTI^`~ILIILHD^^JAAZCZASAKCCCAKJQLQILLD`^]]~^^^`^^^^^^^^^U",
"LLLLLLLKGLLLLGKHGGLLLLLLLLLLLLLLLPLLLLLLLLLLLLLLLLLLLLLLLLLLLLLK",
"qwwwwwwwwwwwwwwqwewwwwwwwweqwwwwqqqeqeqwqwwwqwwwwqwwwwwwwwwwqwe8",
">12454>=>=>$#o 6,,,<225,,,,,,42>>>>$#$o 511-12253,<>$*$>>=%==*,=",
"DDCJDDDDDDDDDbCSSbzbbkbbJDDZJDDDDDDJDDDL^^LCDADZDDDDDDDDZZJCZDDb",
"KJLDDZgCDCCCMnnAILLLnnDggggvgkbgbLLLLDCnZLLLLnCnnbzgnkNGGGLGDDDD",
"LJDKZDnKnzgzbZLbbnnnbLGCCKDDDJJnZggzzLLLLLLLKLLKLLHLLHCxbnnGKKGz",
"DkkkbkkvsgnnGLJLLLLLLKKZZJnnCJDKbbLGbbbKLLLKLLLGKdgkkgsdggGzzxzz",
"nLKKGnnnDkdDnmnbzLnkkJLLLLLLLLLDDZKLLLzbbGJnzkdfgGLbbnzLPHLLDKHD",
"LLLLLKKDDbnvbkgbfggvkgghgLLLLHLLPLLLZnbxVgxLbkzVbbgMCDLLLLLVDLLD",
"LLLDCGLnsDGtfDnbnDdkggzkkassakkDLLLHJZJnbkzgbgzggkVKLHDDkzxHLLLD",
"KZCMZMgfMVKDCCkxLGLLGCvgzxZCgfdtuzCKDGsdaskdhaasgZVttatssVMGDHLZ",
"CCDnCCCZZCCxGLLLnkbnCKLLLLDDnbCDstttttadddbdsggDhzkbzzGDzlCDDDnx",
"DDGGHJCKLLLLLLILLLLLLLLLLLLLLLDDnDJKDKJHJDJ^LLLdddvbkkkkLDGLGGDD",
"DDDDJDDDJL~(^^^^(((TJJLLLPLDHYI~^^^^^PKQ^(^^LDDGDDDnDmDJJDDDDDGn",
"uuuuuuuuuuddddddsv~LvvL^^^~^^^^(~bsvLJgssssduuuuuuuuuuuupuuuupuw",
"#$%=#$%==%%*=%==-$#$$$=======$$-6%##==$=#-#===$-==$$--====-=-=--"
};
